<?xml version="1.0" encoding="UTF-8" standalone="no"?>
<!DOCTYPE svg PUBLIC "-//W3C//DTD SVG 1.1//EN"
 "http://www.w3.org/Graphics/SVG/1.1/DTD/svg11.dtd">
<!-- Generated by graphviz version 7.1.0 (20230121.1956)
 -->
<!-- Title: G Pages: 1 -->
<svg width="682pt" height="188pt"
 viewBox="0.00 0.00 682.00 188.00" xmlns="http://www.w3.org/2000/svg" xmlns:xlink="http://www.w3.org/1999/xlink">
<g id="graph0" class="graph" transform="scale(1 1) rotate(0) translate(4 184)">
<title>G</title>
<polygon fill="white" stroke="none" points="-4,4 -4,-184 678,-184 678,4 -4,4"/>
<!-- node0 -->
<g id="node1" class="node">
<title>node0</title>
<polygon fill="black" stroke="none" points="334,-169 334,-175 366,-175 366,-169 334,-169"/>
<polygon fill="none" stroke="black" points="334,-169 334,-175 366,-175 366,-169 334,-169"/>
<polygon fill="black" stroke="none" points="366,-169 366,-175 386,-175 386,-169 366,-169"/>
<polygon fill="none" stroke="black" points="366,-169 366,-175 386,-175 386,-169 366,-169"/>
<polygon fill="black" stroke="none" points="386,-169 386,-175 418,-175 418,-169 386,-169"/>
<polygon fill="none" stroke="black" points="386,-169 386,-175 418,-175 418,-169 386,-169"/>
<polygon fill="none" stroke="black" points="334,-148 334,-169 340,-169 340,-148 334,-148"/>
<polygon fill="none" stroke="black" points="340,-148 340,-169 360,-169 360,-148 340,-148"/>
<text text-anchor="start" x="343" y="-154.8" font-family="Times,serif" font-size="14.00" fill="blue">21</text>
<polygon fill="none" stroke="black" points="360,-148 360,-169 366,-169 366,-148 360,-148"/>
<polygon fill="none" stroke="black" points="366,-148 366,-169 386,-169 386,-148 366,-148"/>
<text text-anchor="start" x="369" y="-154.8" font-family="Times,serif" font-size="14.00" fill="blue">48</text>
<polygon fill="none" stroke="black" points="386,-148 386,-169 392,-169 392,-148 386,-148"/>
<polygon fill="none" stroke="black" points="392,-148 392,-169 412,-169 412,-148 392,-148"/>
<text text-anchor="start" x="395" y="-154.8" font-family="Times,serif" font-size="14.00" fill="blue">72</text>
<polygon fill="none" stroke="black" points="412,-148 412,-169 418,-169 418,-148 412,-148"/>
</g>
<!-- node1 -->
<g id="node2" class="node">
<title>node1</title>
<polygon fill="black" stroke="none" points="82,-97 82,-103 114,-103 114,-97 82,-97"/>
<polygon fill="none" stroke="black" points="82,-97 82,-103 114,-103 114,-97 82,-97"/>
<polygon fill="black" stroke="none" points="114,-97 114,-103 134,-103 134,-97 114,-97"/>
<polygon fill="none" stroke="black" points="114,-97 114,-103 134,-103 134,-97 114,-97"/>
<polygon fill="black" stroke="none" points="134,-97 134,-103 166,-103 166,-97 134,-97"/>
<polygon fill="none" stroke="black" points="134,-97 134,-103 166,-103 166,-97 134,-97"/>
<polygon fill="none" stroke="black" points="82,-76 82,-97 88,-97 88,-76 82,-76"/>
<polygon fill="none" stroke="black" points="88,-76 88,-97 108,-97 108,-76 88,-76"/>
<text text-anchor="start" x="91" y="-82.8" font-family="Times,serif" font-size="14.00" fill="red">12</text>
<polygon fill="none" stroke="black" points="108,-76 108,-97 114,-97 114,-76 108,-76"/>
<polygon fill="none" stroke="black" points="114,-76 114,-97 134,-97 134,-76 114,-76"/>
<text text-anchor="start" x="117" y="-82.8" font-family="Times,serif" font-size="14.00" fill="red">15</text>
<polygon fill="none" stroke="black" points="134,-76 134,-97 140,-97 140,-76 134,-76"/>
<polygon fill="none" stroke="black" points="140,-76 140,-97 160,-97 160,-76 140,-76"/>
<text text-anchor="start" x="147.5" y="-82.8" font-family="Times,serif" font-size="14.00">&#45;</text>
<polygon fill="grey" stroke="none" points="160,-76 160,-97 166,-97 166,-76 160,-76"/>
<polygon fill="none" stroke="black" points="160,-76 160,-97 166,-97 166,-76 160,-76"/>
</g>
<!-- node0&#45;&gt;node1 -->
<g id="edge1" class="edge">
<title>node0:f0&#45;&gt;node1:H</title>
<path fill="none" stroke="black" d="M337,-147C337,-147 124,-104 124,-104"/>
</g>
<!-- node2 -->
<g id="node3" class="node">
<title>node2</title>
<polygon fill="black" stroke="none" points="239,-97 239,-103 271,-103 271,-97 239,-97"/>
<polygon fill="none" stroke="black" points="239,-97 239,-103 271,-103 271,-97 239,-97"/>
<polygon fill="black" stroke="none" points="271,-97 271,-103 291,-103 291,-97 271,-97"/>
<polygon fill="none" stroke="black" points="271,-97 271,-103 291,-103 291,-97 271,-97"/>
<polygon fill="black" stroke="none" points="291,-97 291,-103 323,-103 323,-97 291,-97"/>
<polygon fill="none" stroke="black" points="291,-97 291,-103 323,-103 323,-97 291,-97"/>
<polygon fill="none" stroke="black" points="239,-76 239,-97 245,-97 245,-76 239,-76"/>
<polygon fill="none" stroke="black" points="245,-76 245,-97 265,-97 265,-76 245,-76"/>
<text text-anchor="start" x="248" y="-82.8" font-family="Times,serif" font-size="14.00" fill="red">25</text>
<polygon fill="none" stroke="black" points="265,-76 265,-97 271,-97 271,-76 265,-76"/>
<polygon fill="none" stroke="black" points="271,-76 271,-97 291,-97 291,-76 271,-76"/>
<text text-anchor="start" x="274" y="-82.8" font-family="Times,serif" font-size="14.00" fill="red">31</text>
<polygon fill="none" stroke="black" points="291,-76 291,-97 297,-97 297,-76 291,-76"/>
<polygon fill="none" stroke="black" points="297,-76 297,-97 317,-97 317,-76 297,-76"/>
<text text-anchor="start" x="300" y="-82.8" font-family="Times,serif" font-size="14.00" fill="red">41</text>
<polygon fill="none" stroke="black" points="317,-76 317,-97 323,-97 323,-76 317,-76"/>
</g>
<!-- node0&#45;&gt;node2 -->
<g id="edge5" class="edge">
<title>node0:f1&#45;&gt;node2:H</title>
<path fill="none" stroke="black" d="M363,-147C363,-147 281,-104 281,-104"/>
</g>
<!-- node3 -->
<g id="node4" class="node">
<title>node3</title>
<polygon fill="black" stroke="none" points="430,-97 430,-103 462,-103 462,-97 430,-97"/>
<polygon fill="none" stroke="black" points="430,-97 430,-103 462,-103 462,-97 430,-97"/>
<polygon fill="black" stroke="none" points="462,-97 462,-103 482,-103 482,-97 462,-97"/>
<polygon fill="none" stroke="black" points="462,-97 462,-103 482,-103 482,-97 462,-97"/>
<polygon fill="black" stroke="none" points="482,-97 482,-103 514,-103 514,-97 482,-97"/>
<polygon fill="none" stroke="black" points="482,-97 482,-103 514,-103 514,-97 482,-97"/>
<polygon fill="none" stroke="black" points="430,-76 430,-97 436,-97 436,-76 430,-76"/>
<polygon fill="none" stroke="black" points="436,-76 436,-97 456,-97 456,-76 436,-76"/>
<text text-anchor="start" x="439" y="-82.8" font-family="Times,serif" font-size="14.00" fill="red">59</text>
<polygon fill="none" stroke="black" points="456,-76 456,-97 462,-97 462,-76 456,-76"/>
<polygon fill="none" stroke="black" points="462,-76 462,-97 482,-97 482,-76 462,-76"/>
<text text-anchor="start" x="469.5" y="-82.8" font-family="Times,serif" font-size="14.00">&#45;</text>
<polygon fill="grey" stroke="none" points="482,-76 482,-97 488,-97 488,-76 482,-76"/>
<polygon fill="none" stroke="black" points="482,-76 482,-97 488,-97 488,-76 482,-76"/>
<polygon fill="none" stroke="black" points="488,-76 488,-97 508,-97 508,-76 488,-76"/>
<text text-anchor="start" x="495.5" y="-82.8" font-family="Times,serif" font-size="14.00">&#45;</text>
<polygon fill="grey" stroke="none" points="508,-76 508,-97 514,-97 514,-76 508,-76"/>
<polygon fill="none" stroke="black" points="508,-76 508,-97 514,-97 514,-76 508,-76"/>
</g>
<!-- node0&#45;&gt;node3 -->
<g id="edge10" class="edge">
<title>node0:f2&#45;&gt;node3:H</title>
<path fill="none" stroke="black" d="M389,-147C389,-147 472,-104 472,-104"/>
</g>
<!-- node4 -->
<g id="node5" class="node">
<title>node4</title>
<polygon fill="black" stroke="none" points="548,-97 548,-103 580,-103 580,-97 548,-97"/>
<polygon fill="none" stroke="black" points="548,-97 548,-103 580,-103 580,-97 548,-97"/>
<polygon fill="black" stroke="none" points="580,-97 580,-103 600,-103 600,-97 580,-97"/>
<polygon fill="none" stroke="black" points="580,-97 580,-103 600,-103 600,-97 580,-97"/>
<polygon fill="black" stroke="none" points="600,-97 600,-103 632,-103 632,-97 600,-97"/>
<polygon fill="none" stroke="black" points="600,-97 600,-103 632,-103 632,-97 600,-97"/>
<polygon fill="none" stroke="black" points="548,-76 548,-97 554,-97 554,-76 548,-76"/>
<polygon fill="none" stroke="black" points="554,-76 554,-97 574,-97 574,-76 554,-76"/>
<text text-anchor="start" x="557" y="-82.8" font-family="Times,serif" font-size="14.00" fill="red">84</text>
<polygon fill="none" stroke="black" points="574,-76 574,-97 580,-97 580,-76 574,-76"/>
<polygon fill="none" stroke="black" points="580,-76 580,-97 600,-97 600,-76 580,-76"/>
<text text-anchor="start" x="583" y="-82.8" font-family="Times,serif" font-size="14.00" fill="red">91</text>
<polygon fill="none" stroke="black" points="600,-76 600,-97 606,-97 606,-76 600,-76"/>
<polygon fill="none" stroke="black" points="606,-76 606,-97 626,-97 626,-76 606,-76"/>
<text text-anchor="start" x="613.5" y="-82.8" font-family="Times,serif" font-size="14.00">&#45;</text>
<polygon fill="grey" stroke="none" points="626,-76 626,-97 632,-97 632,-76 626,-76"/>
<polygon fill="none" stroke="black" points="626,-76 626,-97 632,-97 632,-76 626,-76"/>
</g>
<!-- node0&#45;&gt;node4 -->
<g id="edge13" class="edge">
<title>node0:f3&#45;&gt;node4:H</title>
<path fill="none" stroke="black" d="M415,-147C415,-147 590,-104 590,-104"/>
</g>
<!-- arr -->
<g id="node6" class="node">
<title>arr</title>
<polygon fill="none" stroke="black" points="11,-7 11,-28 74,-28 74,-7 11,-7"/>
<text text-anchor="start" x="14" y="-13.8" font-family="Times,serif" font-size="14.00">1, 4, 8, 11</text>
<polygon fill="none" stroke="black" points="76,-7 76,-28 118,-28 118,-7 76,-7"/>
<text text-anchor="start" x="79" y="-14.8" font-family="Times,serif" font-size="14.00" fill="red">12</text>
<text text-anchor="start" x="93" y="-14.8" font-family="Times,serif" font-size="14.00">, 13</text>
<polygon fill="none" stroke="black" points="120,-7 120,-28 183,-28 183,-7 120,-7"/>
<text text-anchor="start" x="123" y="-14.8" font-family="Times,serif" font-size="14.00" fill="red">15</text>
<text text-anchor="start" x="137" y="-14.8" font-family="Times,serif" font-size="14.00">, 18, 19</text>
<polygon fill="none" stroke="black" points="185,-7 185,-28 227,-28 227,-7 185,-7"/>
<text text-anchor="start" x="188" y="-14.8" font-family="Times,serif" font-size="14.00" fill="blue">21</text>
<text text-anchor="start" x="202" y="-14.8" font-family="Times,serif" font-size="14.00">, 24</text>
<polygon fill="none" stroke="black" points="229,-7 229,-28 271,-28 271,-7 229,-7"/>
<text text-anchor="start" x="232" y="-14.8" font-family="Times,serif" font-size="14.00" fill="red">25</text>
<text text-anchor="start" x="246" y="-14.8" font-family="Times,serif" font-size="14.00">, 26</text>
<polygon fill="none" stroke="black" points="273,-7 273,-28 315,-28 315,-7 273,-7"/>
<text text-anchor="start" x="276" y="-14.8" font-family="Times,serif" font-size="14.00" fill="red">31</text>
<text text-anchor="start" x="290" y="-14.8" font-family="Times,serif" font-size="14.00">, 38</text>
<polygon fill="none" stroke="black" points="317,-7 317,-28 401,-28 401,-7 317,-7"/>
<text text-anchor="start" x="320" y="-14.8" font-family="Times,serif" font-size="14.00" fill="red">41</text>
<text text-anchor="start" x="334" y="-14.8" font-family="Times,serif" font-size="14.00">, 43, 45, </text>
<text text-anchor="start" x="384" y="-14.8" font-family="Times,serif" font-size="14.00" fill="orange">46</text>
<polygon fill="none" stroke="black" points="403,-7 403,-28 466,-28 466,-7 403,-7"/>
<text text-anchor="start" x="406" y="-14.8" font-family="Times,serif" font-size="14.00" fill="blue">48</text>
<text text-anchor="start" x="420" y="-14.8" font-family="Times,serif" font-size="14.00">, 49, 50</text>
<polygon fill="none" stroke="black" points="468,-7 468,-28 510,-28 510,-7 468,-7"/>
<text text-anchor="start" x="471" y="-14.8" font-family="Times,serif" font-size="14.00" fill="red">59</text>
<text text-anchor="start" x="485" y="-14.8" font-family="Times,serif" font-size="14.00">, 68</text>
<polygon fill="none" stroke="black" points="512,-7 512,-28 554,-28 554,-7 512,-7"/>
<text text-anchor="start" x="515" y="-14.8" font-family="Times,serif" font-size="14.00" fill="blue">72</text>
<text text-anchor="start" x="529" y="-14.8" font-family="Times,serif" font-size="14.00">, 78</text>
<polygon fill="none" stroke="black" points="556,-7 556,-28 598,-28 598,-7 556,-7"/>
<text text-anchor="start" x="559" y="-14.8" font-family="Times,serif" font-size="14.00" fill="red">84</text>
<text text-anchor="start" x="573" y="-14.8" font-family="Times,serif" font-size="14.00">, 88</text>
<polygon fill="none" stroke="black" points="600,-7 600,-28 663,-28 663,-7 600,-7"/>
<text text-anchor="start" x="603" y="-14.8" font-family="Times,serif" font-size="14.00" fill="red">91</text>
<text text-anchor="start" x="617" y="-14.8" font-family="Times,serif" font-size="14.00">, 92, 99</text>
<polygon fill="none" stroke="black" points="8,-4.5 8,-31.5 666,-31.5 666,-4.5 8,-4.5"/>
</g>
<!-- node1&#45;&gt;arr -->
<g id="edge2" class="edge">
<title>node1:f0&#45;&gt;arr:f0</title>
<path fill="none" stroke="black" d="M85,-75C85,-75 42,-29 42,-29"/>
</g>
<!-- node1&#45;&gt;arr -->
<g id="edge3" class="edge">
<title>node1:f1&#45;&gt;arr:f1</title>
<path fill="none" stroke="black" d="M111,-75C111,-75 97,-29 97,-29"/>
</g>
<!-- node1&#45;&gt;arr -->
<g id="edge4" class="edge">
<title>node1:f2&#45;&gt;arr:f2</title>
<path fill="none" stroke="black" d="M137,-75C137,-75 151,-29 151,-29"/>
</g>
<!-- node2&#45;&gt;arr -->
<g id="edge6" class="edge">
<title>node2:f0&#45;&gt;arr:f3</title>
<path fill="none" stroke="black" d="M242,-75C242,-75 206,-29 206,-29"/>
</g>
<!-- node2&#45;&gt;arr -->
<g id="edge7" class="edge">
<title>node2:f1&#45;&gt;arr:f4</title>
<path fill="none" stroke="black" d="M268,-75C268,-75 250,-29 250,-29"/>
</g>
<!-- node2&#45;&gt;arr -->
<g id="edge8" class="edge">
<title>node2:f2&#45;&gt;arr:f5</title>
<path fill="none" stroke="black" d="M294,-75C294,-75 294,-29 294,-29"/>
</g>
<!-- node2&#45;&gt;arr -->
<g id="edge9" class="edge">
<title>node2:f3&#45;&gt;arr:f6</title>
<path fill="none" stroke="black" d="M320,-75C320,-75 359,-29 359,-29"/>
</g>
<!-- node3&#45;&gt;arr -->
<g id="edge11" class="edge">
<title>node3:f0&#45;&gt;arr:f7</title>
<path fill="none" stroke="black" d="M433,-75C433,-75 435,-29 435,-29"/>
</g>
<!-- node3&#45;&gt;arr -->
<g id="edge12" class="edge">
<title>node3:f1&#45;&gt;arr:f8</title>
<path fill="none" stroke="black" d="M459,-75C459,-75 489,-29 489,-29"/>
</g>
<!-- node4&#45;&gt;arr -->
<g id="edge14" class="edge">
<title>node4:f0&#45;&gt;arr:f9</title>
<path fill="none" stroke="black" d="M551,-75C551,-75 533,-29 533,-29"/>
</g>
<!-- node4&#45;&gt;arr -->
<g id="edge15" class="edge">
<title>node4:f1&#45;&gt;arr:f10</title>
<path fill="none" stroke="black" d="M577,-75C577,-75 577,-29 577,-29"/>
</g>
<!-- node4&#45;&gt;arr -->
<g id="edge16" class="edge">
<title>node4:f2&#45;&gt;arr:f11</title>
<path fill="none" stroke="black" d="M603,-75C603,-75 632,-29 632,-29"/>
</g>
</g>
</svg>
