<?xml version="1.0" encoding="UTF-8" standalone="no"?>
<!DOCTYPE svg PUBLIC "-//W3C//DTD SVG 1.1//EN"
 "http://www.w3.org/Graphics/SVG/1.1/DTD/svg11.dtd">
<!-- Generated by graphviz version 7.1.0 (20230121.1956)
 -->
<!-- Title: G Pages: 1 -->
<svg width="706pt" height="189pt"
 viewBox="0.00 0.00 706.00 189.00" xmlns="http://www.w3.org/2000/svg" xmlns:xlink="http://www.w3.org/1999/xlink">
<g id="graph0" class="graph" transform="scale(1 1) rotate(0) translate(4 185)">
<title>G</title>
<polygon fill="white" stroke="none" points="-4,4 -4,-185 702,-185 702,4 -4,4"/>
<!-- node0 -->
<g id="node1" class="node">
<title>node0</title>
<polygon fill="black" stroke="none" points="346,-170 346,-176 378,-176 378,-170 346,-170"/>
<polygon fill="none" stroke="black" points="346,-170 346,-176 378,-176 378,-170 346,-170"/>
<polygon fill="black" stroke="none" points="378,-170 378,-176 398,-176 398,-170 378,-170"/>
<polygon fill="none" stroke="black" points="378,-170 378,-176 398,-176 398,-170 378,-170"/>
<polygon fill="black" stroke="none" points="398,-170 398,-176 430,-176 430,-170 398,-170"/>
<polygon fill="none" stroke="black" points="398,-170 398,-176 430,-176 430,-170 398,-170"/>
<polygon fill="none" stroke="black" points="346,-149 346,-170 352,-170 352,-149 346,-149"/>
<polygon fill="none" stroke="black" points="352,-149 352,-170 372,-170 372,-149 352,-149"/>
<text text-anchor="start" x="355" y="-155.8" font-family="Times,serif" font-size="14.00" fill="blue">21</text>
<polygon fill="none" stroke="black" points="372,-149 372,-170 378,-170 378,-149 372,-149"/>
<polygon fill="none" stroke="black" points="378,-149 378,-170 398,-170 398,-149 378,-149"/>
<text text-anchor="start" x="381" y="-155.8" font-family="Times,serif" font-size="14.00" fill="blue">48</text>
<polygon fill="none" stroke="black" points="398,-149 398,-170 404,-170 404,-149 398,-149"/>
<polygon fill="none" stroke="black" points="404,-149 404,-170 424,-170 424,-149 404,-149"/>
<text text-anchor="start" x="407" y="-155.8" font-family="Times,serif" font-size="14.00" fill="blue">72</text>
<polygon fill="none" stroke="black" points="424,-149 424,-170 430,-170 430,-149 424,-149"/>
</g>
<!-- node1 -->
<g id="node2" class="node">
<title>node1</title>
<polygon fill="black" stroke="none" points="82,-98 82,-104 114,-104 114,-98 82,-98"/>
<polygon fill="none" stroke="black" points="82,-98 82,-104 114,-104 114,-98 82,-98"/>
<polygon fill="black" stroke="none" points="114,-98 114,-104 134,-104 134,-98 114,-98"/>
<polygon fill="none" stroke="black" points="114,-98 114,-104 134,-104 134,-98 114,-98"/>
<polygon fill="black" stroke="none" points="134,-98 134,-104 166,-104 166,-98 134,-98"/>
<polygon fill="none" stroke="black" points="134,-98 134,-104 166,-104 166,-98 134,-98"/>
<polygon fill="none" stroke="black" points="82,-77 82,-98 88,-98 88,-77 82,-77"/>
<polygon fill="none" stroke="black" points="88,-77 88,-98 108,-98 108,-77 88,-77"/>
<text text-anchor="start" x="91" y="-83.8" font-family="Times,serif" font-size="14.00" fill="red">12</text>
<polygon fill="none" stroke="black" points="108,-77 108,-98 114,-98 114,-77 108,-77"/>
<polygon fill="none" stroke="black" points="114,-77 114,-98 134,-98 134,-77 114,-77"/>
<text text-anchor="start" x="117" y="-83.8" font-family="Times,serif" font-size="14.00" fill="red">15</text>
<polygon fill="none" stroke="black" points="134,-77 134,-98 140,-98 140,-77 134,-77"/>
<polygon fill="none" stroke="black" points="140,-77 140,-98 160,-98 160,-77 140,-77"/>
<text text-anchor="start" x="147.5" y="-83.8" font-family="Times,serif" font-size="14.00">&#45;</text>
<polygon fill="grey" stroke="none" points="160,-77 160,-98 166,-98 166,-77 160,-77"/>
<polygon fill="none" stroke="black" points="160,-77 160,-98 166,-98 166,-77 160,-77"/>
</g>
<!-- node0&#45;&gt;node1 -->
<g id="edge1" class="edge">
<title>node0:f0&#45;&gt;node1:H</title>
<path fill="none" stroke="black" d="M349,-148C349,-148 124,-105 124,-105"/>
</g>
<!-- node2 -->
<g id="node3" class="node">
<title>node2</title>
<polygon fill="black" stroke="none" points="239,-98 239,-104 271,-104 271,-98 239,-98"/>
<polygon fill="none" stroke="black" points="239,-98 239,-104 271,-104 271,-98 239,-98"/>
<polygon fill="black" stroke="none" points="271,-98 271,-104 291,-104 291,-98 271,-98"/>
<polygon fill="none" stroke="black" points="271,-98 271,-104 291,-104 291,-98 271,-98"/>
<polygon fill="black" stroke="none" points="291,-98 291,-104 323,-104 323,-98 291,-98"/>
<polygon fill="none" stroke="black" points="291,-98 291,-104 323,-104 323,-98 291,-98"/>
<polygon fill="none" stroke="black" points="239,-77 239,-98 245,-98 245,-77 239,-77"/>
<polygon fill="none" stroke="black" points="245,-77 245,-98 265,-98 265,-77 245,-77"/>
<text text-anchor="start" x="248" y="-83.8" font-family="Times,serif" font-size="14.00" fill="red">25</text>
<polygon fill="none" stroke="black" points="265,-77 265,-98 271,-98 271,-77 265,-77"/>
<polygon fill="none" stroke="black" points="271,-77 271,-98 291,-98 291,-77 271,-77"/>
<text text-anchor="start" x="274" y="-83.8" font-family="Times,serif" font-size="14.00" fill="red">31</text>
<polygon fill="none" stroke="black" points="291,-77 291,-98 297,-98 297,-77 291,-77"/>
<polygon fill="none" stroke="black" points="297,-77 297,-98 317,-98 317,-77 297,-77"/>
<text text-anchor="start" x="300" y="-83.8" font-family="Times,serif" font-size="14.00" fill="red">41</text>
<polygon fill="none" stroke="black" points="317,-77 317,-98 323,-98 323,-77 317,-77"/>
</g>
<!-- node0&#45;&gt;node2 -->
<g id="edge5" class="edge">
<title>node0:f1&#45;&gt;node2:H</title>
<path fill="none" stroke="black" d="M375,-148C375,-148 281,-105 281,-105"/>
</g>
<!-- node3 -->
<g id="node4" class="node">
<title>node3</title>
<polygon fill="black" stroke="none" points="454,-98 454,-104 486,-104 486,-98 454,-98"/>
<polygon fill="none" stroke="black" points="454,-98 454,-104 486,-104 486,-98 454,-98"/>
<polygon fill="black" stroke="none" points="486,-98 486,-104 506,-104 506,-98 486,-98"/>
<polygon fill="none" stroke="black" points="486,-98 486,-104 506,-104 506,-98 486,-98"/>
<polygon fill="black" stroke="none" points="506,-98 506,-104 538,-104 538,-98 506,-98"/>
<polygon fill="none" stroke="black" points="506,-98 506,-104 538,-104 538,-98 506,-98"/>
<polygon fill="none" stroke="black" points="454,-77 454,-98 460,-98 460,-77 454,-77"/>
<polygon fill="none" stroke="black" points="460,-77 460,-98 480,-98 480,-77 460,-77"/>
<text text-anchor="start" x="463" y="-83.8" font-family="Times,serif" font-size="14.00" fill="red">59</text>
<polygon fill="none" stroke="black" points="480,-77 480,-98 486,-98 486,-77 480,-77"/>
<polygon fill="none" stroke="black" points="486,-77 486,-98 506,-98 506,-77 486,-77"/>
<text text-anchor="start" x="493.5" y="-83.8" font-family="Times,serif" font-size="14.00">&#45;</text>
<polygon fill="grey" stroke="none" points="506,-77 506,-98 512,-98 512,-77 506,-77"/>
<polygon fill="none" stroke="black" points="506,-77 506,-98 512,-98 512,-77 506,-77"/>
<polygon fill="none" stroke="black" points="512,-77 512,-98 532,-98 532,-77 512,-77"/>
<text text-anchor="start" x="519.5" y="-83.8" font-family="Times,serif" font-size="14.00">&#45;</text>
<polygon fill="grey" stroke="none" points="532,-77 532,-98 538,-98 538,-77 532,-77"/>
<polygon fill="none" stroke="black" points="532,-77 532,-98 538,-98 538,-77 532,-77"/>
</g>
<!-- node0&#45;&gt;node3 -->
<g id="edge10" class="edge">
<title>node0:f2&#45;&gt;node3:H</title>
<path fill="none" stroke="black" d="M401,-148C401,-148 496,-105 496,-105"/>
</g>
<!-- node4 -->
<g id="node5" class="node">
<title>node4</title>
<polygon fill="black" stroke="none" points="572,-98 572,-104 604,-104 604,-98 572,-98"/>
<polygon fill="none" stroke="black" points="572,-98 572,-104 604,-104 604,-98 572,-98"/>
<polygon fill="black" stroke="none" points="604,-98 604,-104 624,-104 624,-98 604,-98"/>
<polygon fill="none" stroke="black" points="604,-98 604,-104 624,-104 624,-98 604,-98"/>
<polygon fill="black" stroke="none" points="624,-98 624,-104 656,-104 656,-98 624,-98"/>
<polygon fill="none" stroke="black" points="624,-98 624,-104 656,-104 656,-98 624,-98"/>
<polygon fill="none" stroke="black" points="572,-77 572,-98 578,-98 578,-77 572,-77"/>
<polygon fill="none" stroke="black" points="578,-77 578,-98 598,-98 598,-77 578,-77"/>
<text text-anchor="start" x="581" y="-83.8" font-family="Times,serif" font-size="14.00" fill="red">84</text>
<polygon fill="none" stroke="black" points="598,-77 598,-98 604,-98 604,-77 598,-77"/>
<polygon fill="none" stroke="black" points="604,-77 604,-98 624,-98 624,-77 604,-77"/>
<text text-anchor="start" x="607" y="-83.8" font-family="Times,serif" font-size="14.00" fill="red">91</text>
<polygon fill="none" stroke="black" points="624,-77 624,-98 630,-98 630,-77 624,-77"/>
<polygon fill="none" stroke="black" points="630,-77 630,-98 650,-98 650,-77 630,-77"/>
<text text-anchor="start" x="637.5" y="-83.8" font-family="Times,serif" font-size="14.00">&#45;</text>
<polygon fill="grey" stroke="none" points="650,-77 650,-98 656,-98 656,-77 650,-77"/>
<polygon fill="none" stroke="black" points="650,-77 650,-98 656,-98 656,-77 650,-77"/>
</g>
<!-- node0&#45;&gt;node4 -->
<g id="edge13" class="edge">
<title>node0:f3&#45;&gt;node4:H</title>
<path fill="none" stroke="black" d="M427,-148C427,-148 614,-105 614,-105"/>
</g>
<!-- arr -->
<g id="node6" class="node">
<title>arr</title>
<polygon fill="none" stroke="black" points="11,-6.5 11,-29.5 74,-29.5 74,-6.5 11,-6.5"/>
<text text-anchor="start" x="14" y="-14.3" font-family="Times,serif" font-size="14.00">1, 4, 8, 11</text>
<polygon fill="none" stroke="black" points="76,-6.5 76,-29.5 118,-29.5 118,-6.5 76,-6.5"/>
<text text-anchor="start" x="79" y="-15.3" font-family="Times,serif" font-size="14.00" fill="red">12</text>
<text text-anchor="start" x="93" y="-15.3" font-family="Times,serif" font-size="14.00">, 13</text>
<polygon fill="none" stroke="black" points="120,-6.5 120,-29.5 183,-29.5 183,-6.5 120,-6.5"/>
<text text-anchor="start" x="123" y="-15.3" font-family="Times,serif" font-size="14.00" fill="red">15</text>
<text text-anchor="start" x="137" y="-15.3" font-family="Times,serif" font-size="14.00">, 18, 19</text>
<polygon fill="none" stroke="black" points="185,-6.5 185,-29.5 227,-29.5 227,-6.5 185,-6.5"/>
<text text-anchor="start" x="188" y="-15.3" font-family="Times,serif" font-size="14.00" fill="blue">21</text>
<text text-anchor="start" x="202" y="-15.3" font-family="Times,serif" font-size="14.00">, 24</text>
<polygon fill="none" stroke="black" points="229,-6.5 229,-29.5 271,-29.5 271,-6.5 229,-6.5"/>
<text text-anchor="start" x="232" y="-15.3" font-family="Times,serif" font-size="14.00" fill="red">25</text>
<text text-anchor="start" x="246" y="-15.3" font-family="Times,serif" font-size="14.00">, 26</text>
<polygon fill="none" stroke="black" points="273,-6.5 273,-29.5 315,-29.5 315,-6.5 273,-6.5"/>
<text text-anchor="start" x="276" y="-15.3" font-family="Times,serif" font-size="14.00" fill="red">31</text>
<text text-anchor="start" x="290" y="-15.3" font-family="Times,serif" font-size="14.00">, 38</text>
<polygon fill="none" stroke="maroon" stroke-width="2" points="318,-7.5 318,-28.5 424,-28.5 424,-7.5 318,-7.5"/>
<text text-anchor="start" x="321" y="-15.3" font-family="Times,serif" font-size="14.00" fill="red">41</text>
<text text-anchor="start" x="335" y="-15.3" font-family="Times,serif" font-size="14.00">, 43, </text>
<text text-anchor="start" x="364" y="-15.3" font-family="Times,serif" font-size="14.00" fill="orange">44</text>
<text text-anchor="start" x="378" y="-15.3" font-family="Times,serif" font-size="14.00">, 45, 46</text>
<polygon fill="none" stroke="black" points="427,-6.5 427,-29.5 490,-29.5 490,-6.5 427,-6.5"/>
<text text-anchor="start" x="430" y="-15.3" font-family="Times,serif" font-size="14.00" fill="blue">48</text>
<text text-anchor="start" x="444" y="-15.3" font-family="Times,serif" font-size="14.00">, 49, 50</text>
<polygon fill="none" stroke="black" points="492,-6.5 492,-29.5 534,-29.5 534,-6.5 492,-6.5"/>
<text text-anchor="start" x="495" y="-15.3" font-family="Times,serif" font-size="14.00" fill="red">59</text>
<text text-anchor="start" x="509" y="-15.3" font-family="Times,serif" font-size="14.00">, 68</text>
<polygon fill="none" stroke="black" points="536,-6.5 536,-29.5 578,-29.5 578,-6.5 536,-6.5"/>
<text text-anchor="start" x="539" y="-15.3" font-family="Times,serif" font-size="14.00" fill="blue">72</text>
<text text-anchor="start" x="553" y="-15.3" font-family="Times,serif" font-size="14.00">, 78</text>
<polygon fill="none" stroke="black" points="580,-6.5 580,-29.5 622,-29.5 622,-6.5 580,-6.5"/>
<text text-anchor="start" x="583" y="-15.3" font-family="Times,serif" font-size="14.00" fill="red">84</text>
<text text-anchor="start" x="597" y="-15.3" font-family="Times,serif" font-size="14.00">, 88</text>
<polygon fill="none" stroke="black" points="624,-6.5 624,-29.5 687,-29.5 687,-6.5 624,-6.5"/>
<text text-anchor="start" x="627" y="-15.3" font-family="Times,serif" font-size="14.00" fill="red">91</text>
<text text-anchor="start" x="641" y="-15.3" font-family="Times,serif" font-size="14.00">, 92, 99</text>
<polygon fill="none" stroke="black" points="8,-4 8,-33 690,-33 690,-4 8,-4"/>
</g>
<!-- node1&#45;&gt;arr -->
<g id="edge2" class="edge">
<title>node1:f0&#45;&gt;arr:f0</title>
<path fill="none" stroke="black" d="M85,-76C85,-76 42,-30.5 42,-30.5"/>
</g>
<!-- node1&#45;&gt;arr -->
<g id="edge3" class="edge">
<title>node1:f1&#45;&gt;arr:f1</title>
<path fill="none" stroke="black" d="M111,-76C111,-76 97,-30.5 97,-30.5"/>
</g>
<!-- node1&#45;&gt;arr -->
<g id="edge4" class="edge">
<title>node1:f2&#45;&gt;arr:f2</title>
<path fill="none" stroke="black" d="M137,-76C137,-76 151,-30.5 151,-30.5"/>
</g>
<!-- node2&#45;&gt;arr -->
<g id="edge6" class="edge">
<title>node2:f0&#45;&gt;arr:f3</title>
<path fill="none" stroke="black" d="M242,-76C242,-76 206,-30.5 206,-30.5"/>
</g>
<!-- node2&#45;&gt;arr -->
<g id="edge7" class="edge">
<title>node2:f1&#45;&gt;arr:f4</title>
<path fill="none" stroke="black" d="M268,-76C268,-76 250,-30.5 250,-30.5"/>
</g>
<!-- node2&#45;&gt;arr -->
<g id="edge8" class="edge">
<title>node2:f2&#45;&gt;arr:f5</title>
<path fill="none" stroke="black" d="M294,-76C294,-76 294,-30.5 294,-30.5"/>
</g>
<!-- node2&#45;&gt;arr -->
<g id="edge9" class="edge">
<title>node2:f3&#45;&gt;arr:f6</title>
<path fill="none" stroke="black" d="M320,-76C320,-76 371,-30.5 371,-30.5"/>
</g>
<!-- node3&#45;&gt;arr -->
<g id="edge11" class="edge">
<title>node3:f0&#45;&gt;arr:f7</title>
<path fill="none" stroke="black" d="M457,-76C457,-76 459,-30.5 459,-30.5"/>
</g>
<!-- node3&#45;&gt;arr -->
<g id="edge12" class="edge">
<title>node3:f1&#45;&gt;arr:f8</title>
<path fill="none" stroke="black" d="M483,-76C483,-76 513,-30.5 513,-30.5"/>
</g>
<!-- node4&#45;&gt;arr -->
<g id="edge14" class="edge">
<title>node4:f0&#45;&gt;arr:f9</title>
<path fill="none" stroke="black" d="M575,-76C575,-76 557,-30.5 557,-30.5"/>
</g>
<!-- node4&#45;&gt;arr -->
<g id="edge15" class="edge">
<title>node4:f1&#45;&gt;arr:f10</title>
<path fill="none" stroke="black" d="M601,-76C601,-76 601,-30.5 601,-30.5"/>
</g>
<!-- node4&#45;&gt;arr -->
<g id="edge16" class="edge">
<title>node4:f2&#45;&gt;arr:f11</title>
<path fill="none" stroke="black" d="M627,-76C627,-76 656,-30.5 656,-30.5"/>
</g>
</g>
</svg>
