<?xml version="1.0" encoding="UTF-8" standalone="no"?>
<!DOCTYPE svg PUBLIC "-//W3C//DTD SVG 1.1//EN"
 "http://www.w3.org/Graphics/SVG/1.1/DTD/svg11.dtd">
<!-- Generated by graphviz version 7.1.0 (20230121.1956)
 -->
<!-- Title: G Pages: 1 -->
<svg width="661pt" height="188pt"
 viewBox="0.00 0.00 661.00 188.00" xmlns="http://www.w3.org/2000/svg" xmlns:xlink="http://www.w3.org/1999/xlink">
<g id="graph0" class="graph" transform="scale(1 1) rotate(0) translate(4 184)">
<title>G</title>
<polygon fill="white" stroke="none" points="-4,4 -4,-184 657,-184 657,4 -4,4"/>
<!-- node0 -->
<g id="node1" class="node">
<title>node0</title>
<polygon fill="black" stroke="none" points="324.5,-169 324.5,-175 356.5,-175 356.5,-169 324.5,-169"/>
<polygon fill="none" stroke="black" points="324.5,-169 324.5,-175 356.5,-175 356.5,-169 324.5,-169"/>
<polygon fill="black" stroke="none" points="356.5,-169 356.5,-175 376.5,-175 376.5,-169 356.5,-169"/>
<polygon fill="none" stroke="black" points="356.5,-169 356.5,-175 376.5,-175 376.5,-169 356.5,-169"/>
<polygon fill="black" stroke="none" points="376.5,-169 376.5,-175 408.5,-175 408.5,-169 376.5,-169"/>
<polygon fill="none" stroke="black" points="376.5,-169 376.5,-175 408.5,-175 408.5,-169 376.5,-169"/>
<polygon fill="none" stroke="black" points="324.5,-148 324.5,-169 330.5,-169 330.5,-148 324.5,-148"/>
<polygon fill="none" stroke="black" points="330.5,-148 330.5,-169 350.5,-169 350.5,-148 330.5,-148"/>
<text text-anchor="start" x="333.5" y="-154.8" font-family="Times,serif" font-size="14.00" fill="blue">21</text>
<polygon fill="none" stroke="black" points="350.5,-148 350.5,-169 356.5,-169 356.5,-148 350.5,-148"/>
<polygon fill="none" stroke="black" points="356.5,-148 356.5,-169 376.5,-169 376.5,-148 356.5,-148"/>
<text text-anchor="start" x="359.5" y="-154.8" font-family="Times,serif" font-size="14.00" fill="blue">48</text>
<polygon fill="none" stroke="black" points="376.5,-148 376.5,-169 382.5,-169 382.5,-148 376.5,-148"/>
<polygon fill="none" stroke="black" points="382.5,-148 382.5,-169 402.5,-169 402.5,-148 382.5,-148"/>
<text text-anchor="start" x="385.5" y="-154.8" font-family="Times,serif" font-size="14.00" fill="blue">72</text>
<polygon fill="none" stroke="black" points="402.5,-148 402.5,-169 408.5,-169 408.5,-148 402.5,-148"/>
</g>
<!-- node1 -->
<g id="node2" class="node">
<title>node1</title>
<polygon fill="black" stroke="none" points="82.5,-97 82.5,-103 114.5,-103 114.5,-97 82.5,-97"/>
<polygon fill="none" stroke="black" points="82.5,-97 82.5,-103 114.5,-103 114.5,-97 82.5,-97"/>
<polygon fill="black" stroke="none" points="114.5,-97 114.5,-103 134.5,-103 134.5,-97 114.5,-97"/>
<polygon fill="none" stroke="black" points="114.5,-97 114.5,-103 134.5,-103 134.5,-97 114.5,-97"/>
<polygon fill="black" stroke="none" points="134.5,-97 134.5,-103 166.5,-103 166.5,-97 134.5,-97"/>
<polygon fill="none" stroke="black" points="134.5,-97 134.5,-103 166.5,-103 166.5,-97 134.5,-97"/>
<polygon fill="none" stroke="black" points="82.5,-76 82.5,-97 88.5,-97 88.5,-76 82.5,-76"/>
<polygon fill="none" stroke="black" points="88.5,-76 88.5,-97 108.5,-97 108.5,-76 88.5,-76"/>
<text text-anchor="start" x="91.5" y="-82.8" font-family="Times,serif" font-size="14.00" fill="red">12</text>
<polygon fill="none" stroke="black" points="108.5,-76 108.5,-97 114.5,-97 114.5,-76 108.5,-76"/>
<polygon fill="none" stroke="black" points="114.5,-76 114.5,-97 134.5,-97 134.5,-76 114.5,-76"/>
<text text-anchor="start" x="117.5" y="-82.8" font-family="Times,serif" font-size="14.00" fill="red">15</text>
<polygon fill="none" stroke="black" points="134.5,-76 134.5,-97 140.5,-97 140.5,-76 134.5,-76"/>
<polygon fill="none" stroke="black" points="140.5,-76 140.5,-97 160.5,-97 160.5,-76 140.5,-76"/>
<text text-anchor="start" x="148" y="-82.8" font-family="Times,serif" font-size="14.00">&#45;</text>
<polygon fill="grey" stroke="none" points="160.5,-76 160.5,-97 166.5,-97 166.5,-76 160.5,-76"/>
<polygon fill="none" stroke="black" points="160.5,-76 160.5,-97 166.5,-97 166.5,-76 160.5,-76"/>
</g>
<!-- node0&#45;&#45;node1 -->
<g id="edge1" class="edge">
<title>node0:f0&#45;&#45;node1:H</title>
<path fill="none" stroke="black" d="M327.5,-147C327.5,-147 124.5,-104 124.5,-104"/>
</g>
<!-- node2 -->
<g id="node3" class="node">
<title>node2</title>
<polygon fill="black" stroke="none" points="239.5,-97 239.5,-103 271.5,-103 271.5,-97 239.5,-97"/>
<polygon fill="none" stroke="black" points="239.5,-97 239.5,-103 271.5,-103 271.5,-97 239.5,-97"/>
<polygon fill="black" stroke="none" points="271.5,-97 271.5,-103 291.5,-103 291.5,-97 271.5,-97"/>
<polygon fill="none" stroke="black" points="271.5,-97 271.5,-103 291.5,-103 291.5,-97 271.5,-97"/>
<polygon fill="black" stroke="none" points="291.5,-97 291.5,-103 323.5,-103 323.5,-97 291.5,-97"/>
<polygon fill="none" stroke="black" points="291.5,-97 291.5,-103 323.5,-103 323.5,-97 291.5,-97"/>
<polygon fill="none" stroke="black" points="239.5,-76 239.5,-97 245.5,-97 245.5,-76 239.5,-76"/>
<polygon fill="none" stroke="black" points="245.5,-76 245.5,-97 265.5,-97 265.5,-76 245.5,-76"/>
<text text-anchor="start" x="248.5" y="-82.8" font-family="Times,serif" font-size="14.00" fill="red">25</text>
<polygon fill="none" stroke="black" points="265.5,-76 265.5,-97 271.5,-97 271.5,-76 265.5,-76"/>
<polygon fill="none" stroke="black" points="271.5,-76 271.5,-97 291.5,-97 291.5,-76 271.5,-76"/>
<text text-anchor="start" x="274.5" y="-82.8" font-family="Times,serif" font-size="14.00" fill="red">31</text>
<polygon fill="none" stroke="black" points="291.5,-76 291.5,-97 297.5,-97 297.5,-76 291.5,-76"/>
<polygon fill="none" stroke="black" points="297.5,-76 297.5,-97 317.5,-97 317.5,-76 297.5,-76"/>
<text text-anchor="start" x="300.5" y="-82.8" font-family="Times,serif" font-size="14.00" fill="red">41</text>
<polygon fill="none" stroke="black" points="317.5,-76 317.5,-97 323.5,-97 323.5,-76 317.5,-76"/>
</g>
<!-- node0&#45;&#45;node2 -->
<g id="edge5" class="edge">
<title>node0:f1&#45;&#45;node2:H</title>
<path fill="none" stroke="black" d="M353.5,-147C353.5,-147 281.5,-104 281.5,-104"/>
</g>
<!-- node3 -->
<g id="node4" class="node">
<title>node3</title>
<polygon fill="black" stroke="none" points="409.5,-97 409.5,-103 441.5,-103 441.5,-97 409.5,-97"/>
<polygon fill="none" stroke="black" points="409.5,-97 409.5,-103 441.5,-103 441.5,-97 409.5,-97"/>
<polygon fill="black" stroke="none" points="441.5,-97 441.5,-103 461.5,-103 461.5,-97 441.5,-97"/>
<polygon fill="none" stroke="black" points="441.5,-97 441.5,-103 461.5,-103 461.5,-97 441.5,-97"/>
<polygon fill="black" stroke="none" points="461.5,-97 461.5,-103 493.5,-103 493.5,-97 461.5,-97"/>
<polygon fill="none" stroke="black" points="461.5,-97 461.5,-103 493.5,-103 493.5,-97 461.5,-97"/>
<polygon fill="none" stroke="black" points="409.5,-76 409.5,-97 415.5,-97 415.5,-76 409.5,-76"/>
<polygon fill="none" stroke="black" points="415.5,-76 415.5,-97 435.5,-97 435.5,-76 415.5,-76"/>
<text text-anchor="start" x="418.5" y="-82.8" font-family="Times,serif" font-size="14.00" fill="red">59</text>
<polygon fill="none" stroke="black" points="435.5,-76 435.5,-97 441.5,-97 441.5,-76 435.5,-76"/>
<polygon fill="none" stroke="black" points="441.5,-76 441.5,-97 461.5,-97 461.5,-76 441.5,-76"/>
<text text-anchor="start" x="449" y="-82.8" font-family="Times,serif" font-size="14.00">&#45;</text>
<polygon fill="grey" stroke="none" points="461.5,-76 461.5,-97 467.5,-97 467.5,-76 461.5,-76"/>
<polygon fill="none" stroke="black" points="461.5,-76 461.5,-97 467.5,-97 467.5,-76 461.5,-76"/>
<polygon fill="none" stroke="black" points="467.5,-76 467.5,-97 487.5,-97 487.5,-76 467.5,-76"/>
<text text-anchor="start" x="475" y="-82.8" font-family="Times,serif" font-size="14.00">&#45;</text>
<polygon fill="grey" stroke="none" points="487.5,-76 487.5,-97 493.5,-97 493.5,-76 487.5,-76"/>
<polygon fill="none" stroke="black" points="487.5,-76 487.5,-97 493.5,-97 493.5,-76 487.5,-76"/>
</g>
<!-- node0&#45;&#45;node3 -->
<g id="edge10" class="edge">
<title>node0:f2&#45;&#45;node3:H</title>
<path fill="none" stroke="black" d="M379.5,-147C379.5,-147 451.5,-104 451.5,-104"/>
</g>
<!-- node4 -->
<g id="node5" class="node">
<title>node4</title>
<polygon fill="black" stroke="none" points="527.5,-97 527.5,-103 559.5,-103 559.5,-97 527.5,-97"/>
<polygon fill="none" stroke="black" points="527.5,-97 527.5,-103 559.5,-103 559.5,-97 527.5,-97"/>
<polygon fill="black" stroke="none" points="559.5,-97 559.5,-103 579.5,-103 579.5,-97 559.5,-97"/>
<polygon fill="none" stroke="black" points="559.5,-97 559.5,-103 579.5,-103 579.5,-97 559.5,-97"/>
<polygon fill="black" stroke="none" points="579.5,-97 579.5,-103 611.5,-103 611.5,-97 579.5,-97"/>
<polygon fill="none" stroke="black" points="579.5,-97 579.5,-103 611.5,-103 611.5,-97 579.5,-97"/>
<polygon fill="none" stroke="black" points="527.5,-76 527.5,-97 533.5,-97 533.5,-76 527.5,-76"/>
<polygon fill="none" stroke="black" points="533.5,-76 533.5,-97 553.5,-97 553.5,-76 533.5,-76"/>
<text text-anchor="start" x="536.5" y="-82.8" font-family="Times,serif" font-size="14.00" fill="red">84</text>
<polygon fill="none" stroke="black" points="553.5,-76 553.5,-97 559.5,-97 559.5,-76 553.5,-76"/>
<polygon fill="none" stroke="black" points="559.5,-76 559.5,-97 579.5,-97 579.5,-76 559.5,-76"/>
<text text-anchor="start" x="562.5" y="-82.8" font-family="Times,serif" font-size="14.00" fill="red">91</text>
<polygon fill="none" stroke="black" points="579.5,-76 579.5,-97 585.5,-97 585.5,-76 579.5,-76"/>
<polygon fill="none" stroke="black" points="585.5,-76 585.5,-97 605.5,-97 605.5,-76 585.5,-76"/>
<text text-anchor="start" x="593" y="-82.8" font-family="Times,serif" font-size="14.00">&#45;</text>
<polygon fill="grey" stroke="none" points="605.5,-76 605.5,-97 611.5,-97 611.5,-76 605.5,-76"/>
<polygon fill="none" stroke="black" points="605.5,-76 605.5,-97 611.5,-97 611.5,-76 605.5,-76"/>
</g>
<!-- node0&#45;&#45;node4 -->
<g id="edge13" class="edge">
<title>node0:f3&#45;&#45;node4:H</title>
<path fill="none" stroke="black" d="M405.5,-147C405.5,-147 569.5,-104 569.5,-104"/>
</g>
<!-- arr -->
<g id="node6" class="node">
<title>arr</title>
<polygon fill="none" stroke="black" points="11.5,-7 11.5,-28 74.5,-28 74.5,-7 11.5,-7"/>
<text text-anchor="start" x="14.5" y="-13.8" font-family="Times,serif" font-size="14.00">1, 4, 8, 11</text>
<polygon fill="none" stroke="black" points="76.5,-7 76.5,-28 118.5,-28 118.5,-7 76.5,-7"/>
<text text-anchor="start" x="79.5" y="-14.8" font-family="Times,serif" font-size="14.00" fill="red">12</text>
<text text-anchor="start" x="93.5" y="-14.8" font-family="Times,serif" font-size="14.00">, 13</text>
<polygon fill="none" stroke="black" points="120.5,-7 120.5,-28 183.5,-28 183.5,-7 120.5,-7"/>
<text text-anchor="start" x="123.5" y="-14.8" font-family="Times,serif" font-size="14.00" fill="red">15</text>
<text text-anchor="start" x="137.5" y="-14.8" font-family="Times,serif" font-size="14.00">, 18, 19</text>
<polygon fill="none" stroke="black" points="185.5,-7 185.5,-28 227.5,-28 227.5,-7 185.5,-7"/>
<text text-anchor="start" x="188.5" y="-14.8" font-family="Times,serif" font-size="14.00" fill="blue">21</text>
<text text-anchor="start" x="202.5" y="-14.8" font-family="Times,serif" font-size="14.00">, 24</text>
<polygon fill="none" stroke="black" points="229.5,-7 229.5,-28 271.5,-28 271.5,-7 229.5,-7"/>
<text text-anchor="start" x="232.5" y="-14.8" font-family="Times,serif" font-size="14.00" fill="red">25</text>
<text text-anchor="start" x="246.5" y="-14.8" font-family="Times,serif" font-size="14.00">, 26</text>
<polygon fill="none" stroke="black" points="273.5,-7 273.5,-28 315.5,-28 315.5,-7 273.5,-7"/>
<text text-anchor="start" x="276.5" y="-14.8" font-family="Times,serif" font-size="14.00" fill="red">31</text>
<text text-anchor="start" x="290.5" y="-14.8" font-family="Times,serif" font-size="14.00">, 38</text>
<polygon fill="none" stroke="black" points="317.5,-7 317.5,-28 380.5,-28 380.5,-7 317.5,-7"/>
<text text-anchor="start" x="320.5" y="-14.8" font-family="Times,serif" font-size="14.00" fill="red">41</text>
<text text-anchor="start" x="334.5" y="-14.8" font-family="Times,serif" font-size="14.00">, 43, 46</text>
<polygon fill="none" stroke="black" points="382.5,-7 382.5,-28 445.5,-28 445.5,-7 382.5,-7"/>
<text text-anchor="start" x="385.5" y="-14.8" font-family="Times,serif" font-size="14.00" fill="blue">48</text>
<text text-anchor="start" x="399.5" y="-14.8" font-family="Times,serif" font-size="14.00">, 49, 50</text>
<polygon fill="none" stroke="black" points="447.5,-7 447.5,-28 489.5,-28 489.5,-7 447.5,-7"/>
<text text-anchor="start" x="450.5" y="-14.8" font-family="Times,serif" font-size="14.00" fill="red">59</text>
<text text-anchor="start" x="464.5" y="-14.8" font-family="Times,serif" font-size="14.00">, 68</text>
<polygon fill="none" stroke="black" points="491.5,-7 491.5,-28 533.5,-28 533.5,-7 491.5,-7"/>
<text text-anchor="start" x="494.5" y="-14.8" font-family="Times,serif" font-size="14.00" fill="blue">72</text>
<text text-anchor="start" x="508.5" y="-14.8" font-family="Times,serif" font-size="14.00">, 78</text>
<polygon fill="none" stroke="black" points="535.5,-7 535.5,-28 577.5,-28 577.5,-7 535.5,-7"/>
<text text-anchor="start" x="538.5" y="-14.8" font-family="Times,serif" font-size="14.00" fill="red">84</text>
<text text-anchor="start" x="552.5" y="-14.8" font-family="Times,serif" font-size="14.00">, 88</text>
<polygon fill="none" stroke="black" points="579.5,-7 579.5,-28 642.5,-28 642.5,-7 579.5,-7"/>
<text text-anchor="start" x="582.5" y="-14.8" font-family="Times,serif" font-size="14.00" fill="red">91</text>
<text text-anchor="start" x="596.5" y="-14.8" font-family="Times,serif" font-size="14.00">, 92, 99</text>
<polygon fill="none" stroke="black" points="8,-4.5 8,-31.5 645,-31.5 645,-4.5 8,-4.5"/>
</g>
<!-- node1&#45;&#45;arr -->
<g id="edge2" class="edge">
<title>node1:f0&#45;&#45;arr:f0</title>
<path fill="none" stroke="black" d="M85.5,-75C85.5,-75 42.5,-29 42.5,-29"/>
</g>
<!-- node1&#45;&#45;arr -->
<g id="edge3" class="edge">
<title>node1:f1&#45;&#45;arr:f1</title>
<path fill="none" stroke="black" d="M111.5,-75C111.5,-75 97.5,-29 97.5,-29"/>
</g>
<!-- node1&#45;&#45;arr -->
<g id="edge4" class="edge">
<title>node1:f2&#45;&#45;arr:f2</title>
<path fill="none" stroke="black" d="M137.5,-75C137.5,-75 151.5,-29 151.5,-29"/>
</g>
<!-- node2&#45;&#45;arr -->
<g id="edge6" class="edge">
<title>node2:f0&#45;&#45;arr:f3</title>
<path fill="none" stroke="black" d="M242.5,-75C242.5,-75 206.5,-29 206.5,-29"/>
</g>
<!-- node2&#45;&#45;arr -->
<g id="edge7" class="edge">
<title>node2:f1&#45;&#45;arr:f4</title>
<path fill="none" stroke="black" d="M268.5,-75C268.5,-75 250.5,-29 250.5,-29"/>
</g>
<!-- node2&#45;&#45;arr -->
<g id="edge8" class="edge">
<title>node2:f2&#45;&#45;arr:f5</title>
<path fill="none" stroke="black" d="M294.5,-75C294.5,-75 294.5,-29 294.5,-29"/>
</g>
<!-- node2&#45;&#45;arr -->
<g id="edge9" class="edge">
<title>node2:f3&#45;&#45;arr:f6</title>
<path fill="none" stroke="black" d="M320.5,-75C320.5,-75 349.5,-29 349.5,-29"/>
</g>
<!-- node3&#45;&#45;arr -->
<g id="edge11" class="edge">
<title>node3:f0&#45;&#45;arr:f7</title>
<path fill="none" stroke="black" d="M412.5,-75C412.5,-75 414.5,-29 414.5,-29"/>
</g>
<!-- node3&#45;&#45;arr -->
<g id="edge12" class="edge">
<title>node3:f1&#45;&#45;arr:f8</title>
<path fill="none" stroke="black" d="M438.5,-75C438.5,-75 468.5,-29 468.5,-29"/>
</g>
<!-- node4&#45;&#45;arr -->
<g id="edge14" class="edge">
<title>node4:f0&#45;&#45;arr:f9</title>
<path fill="none" stroke="black" d="M530.5,-75C530.5,-75 512.5,-29 512.5,-29"/>
</g>
<!-- node4&#45;&#45;arr -->
<g id="edge15" class="edge">
<title>node4:f1&#45;&#45;arr:f10</title>
<path fill="none" stroke="black" d="M556.5,-75C556.5,-75 556.5,-29 556.5,-29"/>
</g>
<!-- node4&#45;&#45;arr -->
<g id="edge16" class="edge">
<title>node4:f2&#45;&#45;arr:f11</title>
<path fill="none" stroke="black" d="M582.5,-75C582.5,-75 611.5,-29 611.5,-29"/>
</g>
</g>
</svg>
