<?xml version="1.0" encoding="UTF-8" standalone="no"?>
<!DOCTYPE svg PUBLIC "-//W3C//DTD SVG 1.1//EN"
 "http://www.w3.org/Graphics/SVG/1.1/DTD/svg11.dtd">
<!-- Generated by graphviz version 7.1.0 (20230121.1956)
 -->
<!-- Title: G Pages: 1 -->
<svg width="662pt" height="188pt"
 viewBox="0.00 0.00 662.00 188.00" xmlns="http://www.w3.org/2000/svg" xmlns:xlink="http://www.w3.org/1999/xlink">
<g id="graph0" class="graph" transform="scale(1 1) rotate(0) translate(4 184)">
<title>G</title>
<polygon fill="white" stroke="none" points="-4,4 -4,-184 658,-184 658,4 -4,4"/>
<!-- node0 -->
<g id="node1" class="node">
<title>node0</title>
<polygon fill="black" stroke="none" points="324,-169 324,-175 356,-175 356,-169 324,-169"/>
<polygon fill="none" stroke="black" points="324,-169 324,-175 356,-175 356,-169 324,-169"/>
<polygon fill="black" stroke="none" points="356,-169 356,-175 376,-175 376,-169 356,-169"/>
<polygon fill="none" stroke="black" points="356,-169 356,-175 376,-175 376,-169 356,-169"/>
<polygon fill="black" stroke="none" points="376,-169 376,-175 408,-175 408,-169 376,-169"/>
<polygon fill="none" stroke="black" points="376,-169 376,-175 408,-175 408,-169 376,-169"/>
<polygon fill="none" stroke="black" points="324,-148 324,-169 330,-169 330,-148 324,-148"/>
<polygon fill="none" stroke="black" points="330,-148 330,-169 350,-169 350,-148 330,-148"/>
<text text-anchor="start" x="333" y="-154.8" font-family="Times,serif" font-size="14.00" fill="blue">21</text>
<polygon fill="none" stroke="black" points="350,-148 350,-169 356,-169 356,-148 350,-148"/>
<polygon fill="none" stroke="black" points="356,-148 356,-169 376,-169 376,-148 356,-148"/>
<text text-anchor="start" x="359" y="-154.8" font-family="Times,serif" font-size="14.00" fill="blue">48</text>
<polygon fill="none" stroke="black" points="376,-148 376,-169 382,-169 382,-148 376,-148"/>
<polygon fill="none" stroke="black" points="382,-148 382,-169 402,-169 402,-148 382,-148"/>
<text text-anchor="start" x="385" y="-154.8" font-family="Times,serif" font-size="14.00" fill="blue">72</text>
<polygon fill="none" stroke="black" points="402,-148 402,-169 408,-169 408,-148 402,-148"/>
</g>
<!-- node1 -->
<g id="node2" class="node">
<title>node1</title>
<polygon fill="black" stroke="none" points="82,-97 82,-103 114,-103 114,-97 82,-97"/>
<polygon fill="none" stroke="black" points="82,-97 82,-103 114,-103 114,-97 82,-97"/>
<polygon fill="black" stroke="none" points="114,-97 114,-103 134,-103 134,-97 114,-97"/>
<polygon fill="none" stroke="black" points="114,-97 114,-103 134,-103 134,-97 114,-97"/>
<polygon fill="black" stroke="none" points="134,-97 134,-103 166,-103 166,-97 134,-97"/>
<polygon fill="none" stroke="black" points="134,-97 134,-103 166,-103 166,-97 134,-97"/>
<polygon fill="none" stroke="black" points="82,-76 82,-97 88,-97 88,-76 82,-76"/>
<polygon fill="none" stroke="black" points="88,-76 88,-97 108,-97 108,-76 88,-76"/>
<text text-anchor="start" x="91" y="-82.8" font-family="Times,serif" font-size="14.00" fill="red">12</text>
<polygon fill="none" stroke="black" points="108,-76 108,-97 114,-97 114,-76 108,-76"/>
<polygon fill="none" stroke="black" points="114,-76 114,-97 134,-97 134,-76 114,-76"/>
<text text-anchor="start" x="117" y="-82.8" font-family="Times,serif" font-size="14.00" fill="red">15</text>
<polygon fill="none" stroke="black" points="134,-76 134,-97 140,-97 140,-76 134,-76"/>
<polygon fill="none" stroke="black" points="140,-76 140,-97 160,-97 160,-76 140,-76"/>
<text text-anchor="start" x="147.5" y="-82.8" font-family="Times,serif" font-size="14.00">&#45;</text>
<polygon fill="grey" stroke="none" points="160,-76 160,-97 166,-97 166,-76 160,-76"/>
<polygon fill="none" stroke="black" points="160,-76 160,-97 166,-97 166,-76 160,-76"/>
</g>
<!-- node0&#45;&#45;node1 -->
<g id="edge1" class="edge">
<title>node0:f0&#45;&#45;node1:H</title>
<path fill="none" stroke="black" d="M327,-147C327,-147 124,-104 124,-104"/>
</g>
<!-- node2 -->
<g id="node3" class="node">
<title>node2</title>
<polygon fill="black" stroke="none" points="239,-97 239,-103 271,-103 271,-97 239,-97"/>
<polygon fill="none" stroke="black" points="239,-97 239,-103 271,-103 271,-97 239,-97"/>
<polygon fill="black" stroke="none" points="271,-97 271,-103 291,-103 291,-97 271,-97"/>
<polygon fill="none" stroke="black" points="271,-97 271,-103 291,-103 291,-97 271,-97"/>
<polygon fill="black" stroke="none" points="291,-97 291,-103 323,-103 323,-97 291,-97"/>
<polygon fill="none" stroke="black" points="291,-97 291,-103 323,-103 323,-97 291,-97"/>
<polygon fill="none" stroke="black" points="239,-76 239,-97 245,-97 245,-76 239,-76"/>
<polygon fill="none" stroke="black" points="245,-76 245,-97 265,-97 265,-76 245,-76"/>
<text text-anchor="start" x="248" y="-82.8" font-family="Times,serif" font-size="14.00" fill="red">25</text>
<polygon fill="none" stroke="black" points="265,-76 265,-97 271,-97 271,-76 265,-76"/>
<polygon fill="none" stroke="black" points="271,-76 271,-97 291,-97 291,-76 271,-76"/>
<text text-anchor="start" x="274" y="-82.8" font-family="Times,serif" font-size="14.00" fill="red">31</text>
<polygon fill="none" stroke="black" points="291,-76 291,-97 297,-97 297,-76 291,-76"/>
<polygon fill="none" stroke="black" points="297,-76 297,-97 317,-97 317,-76 297,-76"/>
<text text-anchor="start" x="300" y="-82.8" font-family="Times,serif" font-size="14.00" fill="red">41</text>
<polygon fill="none" stroke="black" points="317,-76 317,-97 323,-97 323,-76 317,-76"/>
</g>
<!-- node0&#45;&#45;node2 -->
<g id="edge5" class="edge">
<title>node0:f1&#45;&#45;node2:H</title>
<path fill="none" stroke="black" d="M353,-147C353,-147 281,-104 281,-104"/>
</g>
<!-- node3 -->
<g id="node4" class="node">
<title>node3</title>
<polygon fill="black" stroke="none" points="410,-97 410,-103 442,-103 442,-97 410,-97"/>
<polygon fill="none" stroke="black" points="410,-97 410,-103 442,-103 442,-97 410,-97"/>
<polygon fill="black" stroke="none" points="442,-97 442,-103 462,-103 462,-97 442,-97"/>
<polygon fill="none" stroke="black" points="442,-97 442,-103 462,-103 462,-97 442,-97"/>
<polygon fill="black" stroke="none" points="462,-97 462,-103 494,-103 494,-97 462,-97"/>
<polygon fill="none" stroke="black" points="462,-97 462,-103 494,-103 494,-97 462,-97"/>
<polygon fill="none" stroke="black" points="410,-76 410,-97 416,-97 416,-76 410,-76"/>
<polygon fill="none" stroke="black" points="416,-76 416,-97 436,-97 436,-76 416,-76"/>
<text text-anchor="start" x="419" y="-82.8" font-family="Times,serif" font-size="14.00" fill="red">59</text>
<polygon fill="none" stroke="black" points="436,-76 436,-97 442,-97 442,-76 436,-76"/>
<polygon fill="none" stroke="black" points="442,-76 442,-97 462,-97 462,-76 442,-76"/>
<text text-anchor="start" x="449.5" y="-82.8" font-family="Times,serif" font-size="14.00">&#45;</text>
<polygon fill="grey" stroke="none" points="462,-76 462,-97 468,-97 468,-76 462,-76"/>
<polygon fill="none" stroke="black" points="462,-76 462,-97 468,-97 468,-76 462,-76"/>
<polygon fill="none" stroke="black" points="468,-76 468,-97 488,-97 488,-76 468,-76"/>
<text text-anchor="start" x="475.5" y="-82.8" font-family="Times,serif" font-size="14.00">&#45;</text>
<polygon fill="grey" stroke="none" points="488,-76 488,-97 494,-97 494,-76 488,-76"/>
<polygon fill="none" stroke="black" points="488,-76 488,-97 494,-97 494,-76 488,-76"/>
</g>
<!-- node0&#45;&#45;node3 -->
<g id="edge10" class="edge">
<title>node0:f2&#45;&#45;node3:H</title>
<path fill="none" stroke="black" d="M379,-147C379,-147 452,-104 452,-104"/>
</g>
<!-- node4 -->
<g id="node5" class="node">
<title>node4</title>
<polygon fill="black" stroke="none" points="528,-97 528,-103 560,-103 560,-97 528,-97"/>
<polygon fill="none" stroke="black" points="528,-97 528,-103 560,-103 560,-97 528,-97"/>
<polygon fill="black" stroke="none" points="560,-97 560,-103 580,-103 580,-97 560,-97"/>
<polygon fill="none" stroke="black" points="560,-97 560,-103 580,-103 580,-97 560,-97"/>
<polygon fill="black" stroke="none" points="580,-97 580,-103 612,-103 612,-97 580,-97"/>
<polygon fill="none" stroke="black" points="580,-97 580,-103 612,-103 612,-97 580,-97"/>
<polygon fill="none" stroke="black" points="528,-76 528,-97 534,-97 534,-76 528,-76"/>
<polygon fill="none" stroke="black" points="534,-76 534,-97 554,-97 554,-76 534,-76"/>
<text text-anchor="start" x="537" y="-82.8" font-family="Times,serif" font-size="14.00" fill="red">84</text>
<polygon fill="none" stroke="black" points="554,-76 554,-97 560,-97 560,-76 554,-76"/>
<polygon fill="none" stroke="black" points="560,-76 560,-97 580,-97 580,-76 560,-76"/>
<text text-anchor="start" x="563" y="-82.8" font-family="Times,serif" font-size="14.00" fill="red">91</text>
<polygon fill="none" stroke="black" points="580,-76 580,-97 586,-97 586,-76 580,-76"/>
<polygon fill="none" stroke="black" points="586,-76 586,-97 606,-97 606,-76 586,-76"/>
<text text-anchor="start" x="593.5" y="-82.8" font-family="Times,serif" font-size="14.00">&#45;</text>
<polygon fill="grey" stroke="none" points="606,-76 606,-97 612,-97 612,-76 606,-76"/>
<polygon fill="none" stroke="black" points="606,-76 606,-97 612,-97 612,-76 606,-76"/>
</g>
<!-- node0&#45;&#45;node4 -->
<g id="edge13" class="edge">
<title>node0:f3&#45;&#45;node4:H</title>
<path fill="none" stroke="black" d="M405,-147C405,-147 570,-104 570,-104"/>
</g>
<!-- arr -->
<g id="node6" class="node">
<title>arr</title>
<polygon fill="none" stroke="black" points="11,-7 11,-28 74,-28 74,-7 11,-7"/>
<text text-anchor="start" x="14" y="-13.8" font-family="Times,serif" font-size="14.00">1, 4, 8, 11</text>
<polygon fill="none" stroke="black" points="76,-7 76,-28 118,-28 118,-7 76,-7"/>
<text text-anchor="start" x="79" y="-14.8" font-family="Times,serif" font-size="14.00" fill="red">12</text>
<text text-anchor="start" x="93" y="-14.8" font-family="Times,serif" font-size="14.00">, 13</text>
<polygon fill="none" stroke="black" points="120,-7 120,-28 183,-28 183,-7 120,-7"/>
<text text-anchor="start" x="123" y="-14.8" font-family="Times,serif" font-size="14.00" fill="red">15</text>
<text text-anchor="start" x="137" y="-14.8" font-family="Times,serif" font-size="14.00">, 18, 19</text>
<polygon fill="none" stroke="black" points="185,-7 185,-28 227,-28 227,-7 185,-7"/>
<text text-anchor="start" x="188" y="-14.8" font-family="Times,serif" font-size="14.00" fill="blue">21</text>
<text text-anchor="start" x="202" y="-14.8" font-family="Times,serif" font-size="14.00">, 24</text>
<polygon fill="none" stroke="black" points="229,-7 229,-28 271,-28 271,-7 229,-7"/>
<text text-anchor="start" x="232" y="-14.8" font-family="Times,serif" font-size="14.00" fill="red">25</text>
<text text-anchor="start" x="246" y="-14.8" font-family="Times,serif" font-size="14.00">, 26</text>
<polygon fill="none" stroke="black" points="273,-7 273,-28 315,-28 315,-7 273,-7"/>
<text text-anchor="start" x="276" y="-14.8" font-family="Times,serif" font-size="14.00" fill="red">31</text>
<text text-anchor="start" x="290" y="-14.8" font-family="Times,serif" font-size="14.00">, 38</text>
<polygon fill="none" stroke="black" points="317,-7 317,-28 381,-28 381,-7 317,-7"/>
<text text-anchor="start" x="320" y="-14.8" font-family="Times,serif" font-size="14.00" fill="red">41</text>
<text text-anchor="start" x="334" y="-14.8" font-family="Times,serif" font-size="14.00">, </text>
<text text-anchor="start" x="342" y="-14.8" font-family="Times,serif" font-size="14.00" fill="ORANGE">43</text>
<text text-anchor="start" x="356" y="-14.8" font-family="Times,serif" font-size="14.00">, 46</text>
<polygon fill="none" stroke="black" points="383,-7 383,-28 446,-28 446,-7 383,-7"/>
<text text-anchor="start" x="386" y="-14.8" font-family="Times,serif" font-size="14.00" fill="blue">48</text>
<text text-anchor="start" x="400" y="-14.8" font-family="Times,serif" font-size="14.00">, 49, 50</text>
<polygon fill="none" stroke="black" points="448,-7 448,-28 490,-28 490,-7 448,-7"/>
<text text-anchor="start" x="451" y="-14.8" font-family="Times,serif" font-size="14.00" fill="red">59</text>
<text text-anchor="start" x="465" y="-14.8" font-family="Times,serif" font-size="14.00">, 68</text>
<polygon fill="none" stroke="black" points="492,-7 492,-28 534,-28 534,-7 492,-7"/>
<text text-anchor="start" x="495" y="-14.8" font-family="Times,serif" font-size="14.00" fill="blue">72</text>
<text text-anchor="start" x="509" y="-14.8" font-family="Times,serif" font-size="14.00">, 78</text>
<polygon fill="none" stroke="black" points="536,-7 536,-28 578,-28 578,-7 536,-7"/>
<text text-anchor="start" x="539" y="-14.8" font-family="Times,serif" font-size="14.00" fill="red">84</text>
<text text-anchor="start" x="553" y="-14.8" font-family="Times,serif" font-size="14.00">, 88</text>
<polygon fill="none" stroke="black" points="580,-7 580,-28 643,-28 643,-7 580,-7"/>
<text text-anchor="start" x="583" y="-14.8" font-family="Times,serif" font-size="14.00" fill="red">91</text>
<text text-anchor="start" x="597" y="-14.8" font-family="Times,serif" font-size="14.00">, 92, 99</text>
<polygon fill="none" stroke="black" points="8,-4.5 8,-31.5 646,-31.5 646,-4.5 8,-4.5"/>
</g>
<!-- node1&#45;&#45;arr -->
<g id="edge2" class="edge">
<title>node1:f0&#45;&#45;arr:f0</title>
<path fill="none" stroke="black" d="M85,-75C85,-75 42,-29 42,-29"/>
</g>
<!-- node1&#45;&#45;arr -->
<g id="edge3" class="edge">
<title>node1:f1&#45;&#45;arr:f1</title>
<path fill="none" stroke="black" d="M111,-75C111,-75 97,-29 97,-29"/>
</g>
<!-- node1&#45;&#45;arr -->
<g id="edge4" class="edge">
<title>node1:f2&#45;&#45;arr:f2</title>
<path fill="none" stroke="black" d="M137,-75C137,-75 151,-29 151,-29"/>
</g>
<!-- node2&#45;&#45;arr -->
<g id="edge6" class="edge">
<title>node2:f0&#45;&#45;arr:f3</title>
<path fill="none" stroke="black" d="M242,-75C242,-75 206,-29 206,-29"/>
</g>
<!-- node2&#45;&#45;arr -->
<g id="edge7" class="edge">
<title>node2:f1&#45;&#45;arr:f4</title>
<path fill="none" stroke="black" d="M268,-75C268,-75 250,-29 250,-29"/>
</g>
<!-- node2&#45;&#45;arr -->
<g id="edge8" class="edge">
<title>node2:f2&#45;&#45;arr:f5</title>
<path fill="none" stroke="black" d="M294,-75C294,-75 294,-29 294,-29"/>
</g>
<!-- node2&#45;&#45;arr -->
<g id="edge9" class="edge">
<title>node2:f3&#45;&#45;arr:f6</title>
<path fill="none" stroke="black" d="M320,-75C320,-75 349,-29 349,-29"/>
</g>
<!-- node3&#45;&#45;arr -->
<g id="edge11" class="edge">
<title>node3:f0&#45;&#45;arr:f7</title>
<path fill="none" stroke="black" d="M413,-75C413,-75 415,-29 415,-29"/>
</g>
<!-- node3&#45;&#45;arr -->
<g id="edge12" class="edge">
<title>node3:f1&#45;&#45;arr:f8</title>
<path fill="none" stroke="black" d="M439,-75C439,-75 469,-29 469,-29"/>
</g>
<!-- node4&#45;&#45;arr -->
<g id="edge14" class="edge">
<title>node4:f0&#45;&#45;arr:f9</title>
<path fill="none" stroke="black" d="M531,-75C531,-75 513,-29 513,-29"/>
</g>
<!-- node4&#45;&#45;arr -->
<g id="edge15" class="edge">
<title>node4:f1&#45;&#45;arr:f10</title>
<path fill="none" stroke="black" d="M557,-75C557,-75 557,-29 557,-29"/>
</g>
<!-- node4&#45;&#45;arr -->
<g id="edge16" class="edge">
<title>node4:f2&#45;&#45;arr:f11</title>
<path fill="none" stroke="black" d="M583,-75C583,-75 612,-29 612,-29"/>
</g>
</g>
</svg>
