<?xml version="1.0" encoding="UTF-8" standalone="no"?>
<!DOCTYPE svg PUBLIC "-//W3C//DTD SVG 1.1//EN"
 "http://www.w3.org/Graphics/SVG/1.1/DTD/svg11.dtd">
<!-- Generated by graphviz version 7.1.0 (20230121.1956)
 -->
<!-- Title: G Pages: 1 -->
<svg width="705pt" height="188pt"
 viewBox="0.00 0.00 705.00 188.00" xmlns="http://www.w3.org/2000/svg" xmlns:xlink="http://www.w3.org/1999/xlink">
<g id="graph0" class="graph" transform="scale(1 1) rotate(0) translate(4 184)">
<title>G</title>
<polygon fill="white" stroke="none" points="-4,4 -4,-184 701,-184 701,4 -4,4"/>
<!-- node0 -->
<g id="node1" class="node">
<title>node0</title>
<polygon fill="black" stroke="none" points="359.5,-169 359.5,-175 391.5,-175 391.5,-169 359.5,-169"/>
<polygon fill="none" stroke="black" points="359.5,-169 359.5,-175 391.5,-175 391.5,-169 359.5,-169"/>
<polygon fill="black" stroke="none" points="391.5,-169 391.5,-175 411.5,-175 411.5,-169 391.5,-169"/>
<polygon fill="none" stroke="black" points="391.5,-169 391.5,-175 411.5,-175 411.5,-169 391.5,-169"/>
<polygon fill="black" stroke="none" points="411.5,-169 411.5,-175 443.5,-175 443.5,-169 411.5,-169"/>
<polygon fill="none" stroke="black" points="411.5,-169 411.5,-175 443.5,-175 443.5,-169 411.5,-169"/>
<polygon fill="none" stroke="black" points="359.5,-148 359.5,-169 365.5,-169 365.5,-148 359.5,-148"/>
<polygon fill="none" stroke="black" points="365.5,-148 365.5,-169 385.5,-169 385.5,-148 365.5,-148"/>
<text text-anchor="start" x="368.5" y="-154.8" font-family="Times,serif" font-size="14.00" fill="blue">21</text>
<polygon fill="none" stroke="black" points="385.5,-148 385.5,-169 391.5,-169 391.5,-148 385.5,-148"/>
<polygon fill="none" stroke="black" points="391.5,-148 391.5,-169 411.5,-169 411.5,-148 391.5,-148"/>
<text text-anchor="start" x="394.5" y="-154.8" font-family="Times,serif" font-size="14.00" fill="blue">48</text>
<polygon fill="none" stroke="black" points="411.5,-148 411.5,-169 417.5,-169 417.5,-148 411.5,-148"/>
<polygon fill="none" stroke="black" points="417.5,-148 417.5,-169 437.5,-169 437.5,-148 417.5,-148"/>
<text text-anchor="start" x="420.5" y="-154.8" font-family="Times,serif" font-size="14.00" fill="blue">72</text>
<polygon fill="none" stroke="black" points="437.5,-148 437.5,-169 443.5,-169 443.5,-148 437.5,-148"/>
</g>
<!-- node1 -->
<g id="node2" class="node">
<title>node1</title>
<polygon fill="black" stroke="none" points="82.5,-97 82.5,-103 114.5,-103 114.5,-97 82.5,-97"/>
<polygon fill="none" stroke="black" points="82.5,-97 82.5,-103 114.5,-103 114.5,-97 82.5,-97"/>
<polygon fill="black" stroke="none" points="114.5,-97 114.5,-103 134.5,-103 134.5,-97 114.5,-97"/>
<polygon fill="none" stroke="black" points="114.5,-97 114.5,-103 134.5,-103 134.5,-97 114.5,-97"/>
<polygon fill="black" stroke="none" points="134.5,-97 134.5,-103 166.5,-103 166.5,-97 134.5,-97"/>
<polygon fill="none" stroke="black" points="134.5,-97 134.5,-103 166.5,-103 166.5,-97 134.5,-97"/>
<polygon fill="none" stroke="black" points="82.5,-76 82.5,-97 88.5,-97 88.5,-76 82.5,-76"/>
<polygon fill="none" stroke="black" points="88.5,-76 88.5,-97 108.5,-97 108.5,-76 88.5,-76"/>
<text text-anchor="start" x="91.5" y="-82.8" font-family="Times,serif" font-size="14.00" fill="red">12</text>
<polygon fill="none" stroke="black" points="108.5,-76 108.5,-97 114.5,-97 114.5,-76 108.5,-76"/>
<polygon fill="none" stroke="black" points="114.5,-76 114.5,-97 134.5,-97 134.5,-76 114.5,-76"/>
<text text-anchor="start" x="117.5" y="-82.8" font-family="Times,serif" font-size="14.00" fill="red">15</text>
<polygon fill="none" stroke="black" points="134.5,-76 134.5,-97 140.5,-97 140.5,-76 134.5,-76"/>
<polygon fill="none" stroke="black" points="140.5,-76 140.5,-97 160.5,-97 160.5,-76 140.5,-76"/>
<text text-anchor="start" x="148" y="-82.8" font-family="Times,serif" font-size="14.00">&#45;</text>
<polygon fill="grey" stroke="none" points="160.5,-76 160.5,-97 166.5,-97 166.5,-76 160.5,-76"/>
<polygon fill="none" stroke="black" points="160.5,-76 160.5,-97 166.5,-97 166.5,-76 160.5,-76"/>
</g>
<!-- node0&#45;&gt;node1 -->
<g id="edge1" class="edge">
<title>node0:f0&#45;&gt;node1:H</title>
<path fill="none" stroke="black" d="M358.5,-158C358.5,-158 124.5,-104 124.5,-104"/>
</g>
<!-- node2 -->
<g id="node3" class="node">
<title>node2</title>
<polygon fill="maroon" stroke="none" points="253.5,-97 253.5,-103 285.5,-103 285.5,-97 253.5,-97"/>
<polygon fill="none" stroke="maroon" points="253.5,-97 253.5,-103 285.5,-103 285.5,-97 253.5,-97"/>
<polygon fill="maroon" stroke="none" points="285.5,-97 285.5,-103 331.5,-103 331.5,-97 285.5,-97"/>
<polygon fill="none" stroke="maroon" points="285.5,-97 285.5,-103 331.5,-103 331.5,-97 285.5,-97"/>
<polygon fill="maroon" stroke="none" points="331.5,-97 331.5,-103 363.5,-103 363.5,-97 331.5,-97"/>
<polygon fill="none" stroke="maroon" points="331.5,-97 331.5,-103 363.5,-103 363.5,-97 331.5,-97"/>
<polygon fill="none" stroke="maroon" points="253.5,-76 253.5,-97 259.5,-97 259.5,-76 253.5,-76"/>
<polygon fill="none" stroke="maroon" points="259.5,-76 259.5,-97 279.5,-97 279.5,-76 259.5,-76"/>
<text text-anchor="start" x="262.5" y="-82.8" font-family="Times,serif" font-size="14.00" fill="red">25</text>
<polygon fill="none" stroke="maroon" points="279.5,-76 279.5,-97 285.5,-97 285.5,-76 279.5,-76"/>
<polygon fill="none" stroke="maroon" points="285.5,-76 285.5,-97 305.5,-97 305.5,-76 285.5,-76"/>
<text text-anchor="start" x="288.5" y="-82.8" font-family="Times,serif" font-size="14.00" fill="red">31</text>
<polygon fill="none" stroke="maroon" points="305.5,-76 305.5,-97 311.5,-97 311.5,-76 305.5,-76"/>
<polygon fill="none" stroke="maroon" points="311.5,-76 311.5,-97 331.5,-97 331.5,-76 311.5,-76"/>
<text text-anchor="start" x="314.5" y="-82.8" font-family="Times,serif" font-size="14.00" fill="red">41</text>
<polygon fill="none" stroke="maroon" points="331.5,-76 331.5,-97 337.5,-97 337.5,-76 331.5,-76"/>
<polygon fill="none" stroke="maroon" points="337.5,-76 337.5,-97 357.5,-97 357.5,-76 337.5,-76"/>
<text text-anchor="start" x="340.5" y="-82.8" font-family="Times,serif" font-size="14.00" fill="red">45</text>
<polygon fill="none" stroke="maroon" points="357.5,-76 357.5,-97 363.5,-97 363.5,-76 357.5,-76"/>
</g>
<!-- node0&#45;&gt;node2 -->
<g id="edge5" class="edge">
<title>node0:f1&#45;&gt;node2:H</title>
<path fill="none" stroke="black" d="M388.5,-147C388.5,-147 308.5,-104 308.5,-104"/>
</g>
<!-- node3 -->
<g id="node4" class="node">
<title>node3</title>
<polygon fill="black" stroke="none" points="453.5,-97 453.5,-103 485.5,-103 485.5,-97 453.5,-97"/>
<polygon fill="none" stroke="black" points="453.5,-97 453.5,-103 485.5,-103 485.5,-97 453.5,-97"/>
<polygon fill="black" stroke="none" points="485.5,-97 485.5,-103 505.5,-103 505.5,-97 485.5,-97"/>
<polygon fill="none" stroke="black" points="485.5,-97 485.5,-103 505.5,-103 505.5,-97 485.5,-97"/>
<polygon fill="black" stroke="none" points="505.5,-97 505.5,-103 537.5,-103 537.5,-97 505.5,-97"/>
<polygon fill="none" stroke="black" points="505.5,-97 505.5,-103 537.5,-103 537.5,-97 505.5,-97"/>
<polygon fill="none" stroke="black" points="453.5,-76 453.5,-97 459.5,-97 459.5,-76 453.5,-76"/>
<polygon fill="none" stroke="black" points="459.5,-76 459.5,-97 479.5,-97 479.5,-76 459.5,-76"/>
<text text-anchor="start" x="462.5" y="-82.8" font-family="Times,serif" font-size="14.00" fill="red">59</text>
<polygon fill="none" stroke="black" points="479.5,-76 479.5,-97 485.5,-97 485.5,-76 479.5,-76"/>
<polygon fill="none" stroke="black" points="485.5,-76 485.5,-97 505.5,-97 505.5,-76 485.5,-76"/>
<text text-anchor="start" x="493" y="-82.8" font-family="Times,serif" font-size="14.00">&#45;</text>
<polygon fill="grey" stroke="none" points="505.5,-76 505.5,-97 511.5,-97 511.5,-76 505.5,-76"/>
<polygon fill="none" stroke="black" points="505.5,-76 505.5,-97 511.5,-97 511.5,-76 505.5,-76"/>
<polygon fill="none" stroke="black" points="511.5,-76 511.5,-97 531.5,-97 531.5,-76 511.5,-76"/>
<text text-anchor="start" x="519" y="-82.8" font-family="Times,serif" font-size="14.00">&#45;</text>
<polygon fill="grey" stroke="none" points="531.5,-76 531.5,-97 537.5,-97 537.5,-76 531.5,-76"/>
<polygon fill="none" stroke="black" points="531.5,-76 531.5,-97 537.5,-97 537.5,-76 531.5,-76"/>
</g>
<!-- node0&#45;&gt;node3 -->
<g id="edge11" class="edge">
<title>node0:f2&#45;&gt;node3:H</title>
<path fill="none" stroke="black" d="M414.5,-147C414.5,-147 495.5,-104 495.5,-104"/>
</g>
<!-- node4 -->
<g id="node5" class="node">
<title>node4</title>
<polygon fill="black" stroke="none" points="571.5,-97 571.5,-103 603.5,-103 603.5,-97 571.5,-97"/>
<polygon fill="none" stroke="black" points="571.5,-97 571.5,-103 603.5,-103 603.5,-97 571.5,-97"/>
<polygon fill="black" stroke="none" points="603.5,-97 603.5,-103 623.5,-103 623.5,-97 603.5,-97"/>
<polygon fill="none" stroke="black" points="603.5,-97 603.5,-103 623.5,-103 623.5,-97 603.5,-97"/>
<polygon fill="black" stroke="none" points="623.5,-97 623.5,-103 655.5,-103 655.5,-97 623.5,-97"/>
<polygon fill="none" stroke="black" points="623.5,-97 623.5,-103 655.5,-103 655.5,-97 623.5,-97"/>
<polygon fill="none" stroke="black" points="571.5,-76 571.5,-97 577.5,-97 577.5,-76 571.5,-76"/>
<polygon fill="none" stroke="black" points="577.5,-76 577.5,-97 597.5,-97 597.5,-76 577.5,-76"/>
<text text-anchor="start" x="580.5" y="-82.8" font-family="Times,serif" font-size="14.00" fill="red">84</text>
<polygon fill="none" stroke="black" points="597.5,-76 597.5,-97 603.5,-97 603.5,-76 597.5,-76"/>
<polygon fill="none" stroke="black" points="603.5,-76 603.5,-97 623.5,-97 623.5,-76 603.5,-76"/>
<text text-anchor="start" x="606.5" y="-82.8" font-family="Times,serif" font-size="14.00" fill="red">91</text>
<polygon fill="none" stroke="black" points="623.5,-76 623.5,-97 629.5,-97 629.5,-76 623.5,-76"/>
<polygon fill="none" stroke="black" points="629.5,-76 629.5,-97 649.5,-97 649.5,-76 629.5,-76"/>
<text text-anchor="start" x="637" y="-82.8" font-family="Times,serif" font-size="14.00">&#45;</text>
<polygon fill="grey" stroke="none" points="649.5,-76 649.5,-97 655.5,-97 655.5,-76 649.5,-76"/>
<polygon fill="none" stroke="black" points="649.5,-76 649.5,-97 655.5,-97 655.5,-76 649.5,-76"/>
</g>
<!-- node0&#45;&gt;node4 -->
<g id="edge14" class="edge">
<title>node0:f3&#45;&gt;node4:H</title>
<path fill="none" stroke="black" d="M440.5,-147C440.5,-147 613.5,-104 613.5,-104"/>
</g>
<!-- arr -->
<g id="node6" class="node">
<title>arr</title>
<polygon fill="none" stroke="black" points="11.5,-7 11.5,-28 74.5,-28 74.5,-7 11.5,-7"/>
<text text-anchor="start" x="14.5" y="-13.8" font-family="Times,serif" font-size="14.00">1, 4, 8, 11</text>
<polygon fill="none" stroke="black" points="76.5,-7 76.5,-28 118.5,-28 118.5,-7 76.5,-7"/>
<text text-anchor="start" x="79.5" y="-14.8" font-family="Times,serif" font-size="14.00" fill="red">12</text>
<text text-anchor="start" x="93.5" y="-14.8" font-family="Times,serif" font-size="14.00">, 13</text>
<polygon fill="none" stroke="black" points="120.5,-7 120.5,-28 183.5,-28 183.5,-7 120.5,-7"/>
<text text-anchor="start" x="123.5" y="-14.8" font-family="Times,serif" font-size="14.00" fill="red">15</text>
<text text-anchor="start" x="137.5" y="-14.8" font-family="Times,serif" font-size="14.00">, 18, 19</text>
<polygon fill="none" stroke="black" points="185.5,-7 185.5,-28 227.5,-28 227.5,-7 185.5,-7"/>
<text text-anchor="start" x="188.5" y="-14.8" font-family="Times,serif" font-size="14.00" fill="blue">21</text>
<text text-anchor="start" x="202.5" y="-14.8" font-family="Times,serif" font-size="14.00">, 24</text>
<polygon fill="none" stroke="black" points="229.5,-7 229.5,-28 271.5,-28 271.5,-7 229.5,-7"/>
<text text-anchor="start" x="232.5" y="-14.8" font-family="Times,serif" font-size="14.00" fill="red">25</text>
<text text-anchor="start" x="246.5" y="-14.8" font-family="Times,serif" font-size="14.00">, 26</text>
<polygon fill="none" stroke="black" points="273.5,-7 273.5,-28 315.5,-28 315.5,-7 273.5,-7"/>
<text text-anchor="start" x="276.5" y="-14.8" font-family="Times,serif" font-size="14.00" fill="red">31</text>
<text text-anchor="start" x="290.5" y="-14.8" font-family="Times,serif" font-size="14.00">, 38</text>
<polygon fill="none" stroke="orange" points="317.5,-7 317.5,-28 380.5,-28 380.5,-7 317.5,-7"/>
<text text-anchor="start" x="320.5" y="-14.8" font-family="Times,serif" font-size="14.00" fill="red">41</text>
<text text-anchor="start" x="334.5" y="-14.8" font-family="Times,serif" font-size="14.00">, 43, 44</text>
<polygon fill="none" stroke="orange" points="382.5,-7 382.5,-28 424.5,-28 424.5,-7 382.5,-7"/>
<text text-anchor="start" x="385.5" y="-14.8" font-family="Times,serif" font-size="14.00" fill="red">45</text>
<text text-anchor="start" x="399.5" y="-14.8" font-family="Times,serif" font-size="14.00">, 46</text>
<polygon fill="none" stroke="black" points="426.5,-7 426.5,-28 489.5,-28 489.5,-7 426.5,-7"/>
<text text-anchor="start" x="429.5" y="-14.8" font-family="Times,serif" font-size="14.00" fill="blue">48</text>
<text text-anchor="start" x="443.5" y="-14.8" font-family="Times,serif" font-size="14.00">, 49, 50</text>
<polygon fill="none" stroke="black" points="491.5,-7 491.5,-28 533.5,-28 533.5,-7 491.5,-7"/>
<text text-anchor="start" x="494.5" y="-14.8" font-family="Times,serif" font-size="14.00" fill="red">59</text>
<text text-anchor="start" x="508.5" y="-14.8" font-family="Times,serif" font-size="14.00">, 68</text>
<polygon fill="none" stroke="black" points="535.5,-7 535.5,-28 577.5,-28 577.5,-7 535.5,-7"/>
<text text-anchor="start" x="538.5" y="-14.8" font-family="Times,serif" font-size="14.00" fill="blue">72</text>
<text text-anchor="start" x="552.5" y="-14.8" font-family="Times,serif" font-size="14.00">, 78</text>
<polygon fill="none" stroke="black" points="579.5,-7 579.5,-28 621.5,-28 621.5,-7 579.5,-7"/>
<text text-anchor="start" x="582.5" y="-14.8" font-family="Times,serif" font-size="14.00" fill="red">84</text>
<text text-anchor="start" x="596.5" y="-14.8" font-family="Times,serif" font-size="14.00">, 88</text>
<polygon fill="none" stroke="black" points="623.5,-7 623.5,-28 686.5,-28 686.5,-7 623.5,-7"/>
<text text-anchor="start" x="626.5" y="-14.8" font-family="Times,serif" font-size="14.00" fill="red">91</text>
<text text-anchor="start" x="640.5" y="-14.8" font-family="Times,serif" font-size="14.00">, 92, 99</text>
<polygon fill="none" stroke="black" points="8,-4.5 8,-31.5 689,-31.5 689,-4.5 8,-4.5"/>
</g>
<!-- node1&#45;&gt;arr -->
<g id="edge2" class="edge">
<title>node1:f0&#45;&gt;arr:f0</title>
<path fill="none" stroke="black" d="M85.5,-75C85.5,-75 42.5,-29 42.5,-29"/>
</g>
<!-- node1&#45;&gt;arr -->
<g id="edge3" class="edge">
<title>node1:f1&#45;&gt;arr:f1</title>
<path fill="none" stroke="black" d="M111.5,-75C111.5,-75 97.5,-29 97.5,-29"/>
</g>
<!-- node1&#45;&gt;arr -->
<g id="edge4" class="edge">
<title>node1:f2&#45;&gt;arr:f2</title>
<path fill="none" stroke="black" d="M137.5,-75C137.5,-75 151.5,-29 151.5,-29"/>
</g>
<!-- node2&#45;&gt;arr -->
<g id="edge6" class="edge">
<title>node2:f0&#45;&gt;arr:f3</title>
<path fill="none" stroke="maroon" d="M256.5,-75C256.5,-75 206.5,-29 206.5,-29"/>
</g>
<!-- node2&#45;&gt;arr -->
<g id="edge7" class="edge">
<title>node2:f1&#45;&gt;arr:f4</title>
<path fill="none" stroke="maroon" d="M282.5,-75C282.5,-75 250.5,-29 250.5,-29"/>
</g>
<!-- node2&#45;&gt;arr -->
<g id="edge8" class="edge">
<title>node2:f2&#45;&gt;arr:f5</title>
<path fill="none" stroke="maroon" d="M308.5,-75C308.5,-75 294.5,-29 294.5,-29"/>
</g>
<!-- node2&#45;&gt;arr -->
<g id="edge9" class="edge">
<title>node2:f3&#45;&gt;arr:f6a</title>
<path fill="none" stroke="maroon" d="M334.5,-75C334.5,-75 349.5,-29 349.5,-29"/>
</g>
<!-- node2&#45;&gt;arr -->
<g id="edge10" class="edge">
<title>node2:f4&#45;&gt;arr:f6b</title>
<path fill="none" stroke="maroon" d="M360.5,-75C360.5,-75 403.5,-29 403.5,-29"/>
</g>
<!-- node3&#45;&gt;arr -->
<g id="edge12" class="edge">
<title>node3:f0&#45;&gt;arr:f7</title>
<path fill="none" stroke="black" d="M456.5,-75C456.5,-75 458.5,-29 458.5,-29"/>
</g>
<!-- node3&#45;&gt;arr -->
<g id="edge13" class="edge">
<title>node3:f1&#45;&gt;arr:f8</title>
<path fill="none" stroke="black" d="M482.5,-75C482.5,-75 512.5,-29 512.5,-29"/>
</g>
<!-- node4&#45;&gt;arr -->
<g id="edge15" class="edge">
<title>node4:f0&#45;&gt;arr:f9</title>
<path fill="none" stroke="black" d="M574.5,-75C574.5,-75 556.5,-29 556.5,-29"/>
</g>
<!-- node4&#45;&gt;arr -->
<g id="edge16" class="edge">
<title>node4:f1&#45;&gt;arr:f10</title>
<path fill="none" stroke="black" d="M600.5,-75C600.5,-75 600.5,-29 600.5,-29"/>
</g>
<!-- node4&#45;&gt;arr -->
<g id="edge17" class="edge">
<title>node4:f2&#45;&gt;arr:f11</title>
<path fill="none" stroke="black" d="M626.5,-75C626.5,-75 655.5,-29 655.5,-29"/>
</g>
</g>
</svg>
