<?xml version="1.0" encoding="UTF-8" standalone="no"?>
<!DOCTYPE svg PUBLIC "-//W3C//DTD SVG 1.1//EN"
 "http://www.w3.org/Graphics/SVG/1.1/DTD/svg11.dtd">
<!-- Generated by graphviz version 7.1.0 (20230121.1956)
 -->
<!-- Title: G Pages: 1 -->
<svg width="705pt" height="260pt"
 viewBox="0.00 0.00 705.00 260.00" xmlns="http://www.w3.org/2000/svg" xmlns:xlink="http://www.w3.org/1999/xlink">
<g id="graph0" class="graph" transform="scale(1 1) rotate(0) translate(4 256)">
<title>G</title>
<polygon fill="white" stroke="none" points="-4,4 -4,-256 701,-256 701,4 -4,4"/>
<!-- node00 -->
<g id="node1" class="node">
<title>node00</title>
<polygon fill="black" stroke="none" points="414.5,-241 414.5,-247 446.5,-247 446.5,-241 414.5,-241"/>
<polygon fill="none" stroke="black" points="414.5,-241 414.5,-247 446.5,-247 446.5,-241 414.5,-241"/>
<polygon fill="black" stroke="none" points="446.5,-241 446.5,-247 466.5,-247 466.5,-241 446.5,-241"/>
<polygon fill="none" stroke="black" points="446.5,-241 446.5,-247 466.5,-247 466.5,-241 446.5,-241"/>
<polygon fill="black" stroke="none" points="466.5,-241 466.5,-247 498.5,-247 498.5,-241 466.5,-241"/>
<polygon fill="none" stroke="black" points="466.5,-241 466.5,-247 498.5,-247 498.5,-241 466.5,-241"/>
<polygon fill="none" stroke="black" points="414.5,-220 414.5,-241 420.5,-241 420.5,-220 414.5,-220"/>
<polygon fill="none" stroke="black" points="420.5,-220 420.5,-241 440.5,-241 440.5,-220 420.5,-220"/>
<text text-anchor="start" x="423.5" y="-226.8" font-family="Times,serif" font-size="14.00" fill="purple">48</text>
<polygon fill="none" stroke="black" points="440.5,-220 440.5,-241 446.5,-241 446.5,-220 440.5,-220"/>
<polygon fill="none" stroke="black" points="446.5,-220 446.5,-241 466.5,-241 466.5,-220 446.5,-220"/>
<text text-anchor="start" x="454" y="-226.8" font-family="Times,serif" font-size="14.00">&#45;</text>
<polygon fill="grey" stroke="none" points="466.5,-220 466.5,-241 472.5,-241 472.5,-220 466.5,-220"/>
<polygon fill="none" stroke="black" points="466.5,-220 466.5,-241 472.5,-241 472.5,-220 466.5,-220"/>
<polygon fill="none" stroke="black" points="472.5,-220 472.5,-241 492.5,-241 492.5,-220 472.5,-220"/>
<text text-anchor="start" x="480" y="-226.8" font-family="Times,serif" font-size="14.00">&#45;</text>
<polygon fill="grey" stroke="none" points="492.5,-220 492.5,-241 498.5,-241 498.5,-220 492.5,-220"/>
<polygon fill="none" stroke="black" points="492.5,-220 492.5,-241 498.5,-241 498.5,-220 492.5,-220"/>
</g>
<!-- node0a -->
<g id="node2" class="node">
<title>node0a</title>
<polygon fill="black" stroke="none" points="280.5,-169 280.5,-175 312.5,-175 312.5,-169 280.5,-169"/>
<polygon fill="none" stroke="black" points="280.5,-169 280.5,-175 312.5,-175 312.5,-169 280.5,-169"/>
<polygon fill="black" stroke="none" points="312.5,-169 312.5,-175 332.5,-175 332.5,-169 312.5,-169"/>
<polygon fill="none" stroke="black" points="312.5,-169 312.5,-175 332.5,-175 332.5,-169 312.5,-169"/>
<polygon fill="black" stroke="none" points="332.5,-169 332.5,-175 364.5,-175 364.5,-169 332.5,-169"/>
<polygon fill="none" stroke="black" points="332.5,-169 332.5,-175 364.5,-175 364.5,-169 332.5,-169"/>
<polygon fill="none" stroke="black" points="280.5,-148 280.5,-169 286.5,-169 286.5,-148 280.5,-148"/>
<polygon fill="none" stroke="black" points="286.5,-148 286.5,-169 306.5,-169 306.5,-148 286.5,-148"/>
<text text-anchor="start" x="289.5" y="-154.8" font-family="Times,serif" font-size="14.00" fill="blue">21</text>
<polygon fill="none" stroke="black" points="306.5,-148 306.5,-169 312.5,-169 312.5,-148 306.5,-148"/>
<polygon fill="none" stroke="black" points="312.5,-148 312.5,-169 332.5,-169 332.5,-148 312.5,-148"/>
<text text-anchor="start" x="315.5" y="-154.8" font-family="Times,serif" font-size="14.00" fill="blue">41</text>
<polygon fill="none" stroke="black" points="332.5,-148 332.5,-169 338.5,-169 338.5,-148 332.5,-148"/>
<polygon fill="none" stroke="black" points="338.5,-148 338.5,-169 358.5,-169 358.5,-148 338.5,-148"/>
<text text-anchor="start" x="346" y="-154.8" font-family="Times,serif" font-size="14.00">&#45;</text>
<polygon fill="grey" stroke="none" points="358.5,-148 358.5,-169 364.5,-169 364.5,-148 358.5,-148"/>
<polygon fill="none" stroke="black" points="358.5,-148 358.5,-169 364.5,-169 364.5,-148 358.5,-148"/>
</g>
<!-- node00&#45;&gt;node0a -->
<g id="edge1" class="edge">
<title>node00:f0&#45;&gt;node0a:H</title>
<path fill="none" stroke="black" d="M417.5,-219C417.5,-219 322.5,-176 322.5,-176"/>
</g>
<!-- node0b -->
<g id="node3" class="node">
<title>node0b</title>
<polygon fill="black" stroke="none" points="496.5,-169 496.5,-175 528.5,-175 528.5,-169 496.5,-169"/>
<polygon fill="none" stroke="black" points="496.5,-169 496.5,-175 528.5,-175 528.5,-169 496.5,-169"/>
<polygon fill="black" stroke="none" points="528.5,-169 528.5,-175 548.5,-175 548.5,-169 528.5,-169"/>
<polygon fill="none" stroke="black" points="528.5,-169 528.5,-175 548.5,-175 548.5,-169 528.5,-169"/>
<polygon fill="black" stroke="none" points="548.5,-169 548.5,-175 580.5,-175 580.5,-169 548.5,-169"/>
<polygon fill="none" stroke="black" points="548.5,-169 548.5,-175 580.5,-175 580.5,-169 548.5,-169"/>
<polygon fill="none" stroke="black" points="496.5,-148 496.5,-169 502.5,-169 502.5,-148 496.5,-148"/>
<polygon fill="none" stroke="black" points="502.5,-148 502.5,-169 522.5,-169 522.5,-148 502.5,-148"/>
<text text-anchor="start" x="505.5" y="-154.8" font-family="Times,serif" font-size="14.00" fill="blue">72</text>
<polygon fill="none" stroke="black" points="522.5,-148 522.5,-169 528.5,-169 528.5,-148 522.5,-148"/>
<polygon fill="none" stroke="black" points="528.5,-148 528.5,-169 548.5,-169 548.5,-148 528.5,-148"/>
<text text-anchor="start" x="536" y="-154.8" font-family="Times,serif" font-size="14.00">&#45;</text>
<polygon fill="grey" stroke="none" points="548.5,-148 548.5,-169 554.5,-169 554.5,-148 548.5,-148"/>
<polygon fill="none" stroke="black" points="548.5,-148 548.5,-169 554.5,-169 554.5,-148 548.5,-148"/>
<polygon fill="none" stroke="black" points="554.5,-148 554.5,-169 574.5,-169 574.5,-148 554.5,-148"/>
<text text-anchor="start" x="562" y="-154.8" font-family="Times,serif" font-size="14.00">&#45;</text>
<polygon fill="grey" stroke="none" points="574.5,-148 574.5,-169 580.5,-169 580.5,-148 574.5,-148"/>
<polygon fill="none" stroke="black" points="574.5,-148 574.5,-169 580.5,-169 580.5,-148 574.5,-148"/>
</g>
<!-- node00&#45;&gt;node0b -->
<g id="edge2" class="edge">
<title>node00:f1&#45;&gt;node0b:H</title>
<path fill="none" stroke="black" d="M443.5,-219C443.5,-219 538.5,-176 538.5,-176"/>
</g>
<!-- node1 -->
<g id="node4" class="node">
<title>node1</title>
<polygon fill="black" stroke="none" points="82.5,-97 82.5,-103 114.5,-103 114.5,-97 82.5,-97"/>
<polygon fill="none" stroke="black" points="82.5,-97 82.5,-103 114.5,-103 114.5,-97 82.5,-97"/>
<polygon fill="black" stroke="none" points="114.5,-97 114.5,-103 134.5,-103 134.5,-97 114.5,-97"/>
<polygon fill="none" stroke="black" points="114.5,-97 114.5,-103 134.5,-103 134.5,-97 114.5,-97"/>
<polygon fill="black" stroke="none" points="134.5,-97 134.5,-103 166.5,-103 166.5,-97 134.5,-97"/>
<polygon fill="none" stroke="black" points="134.5,-97 134.5,-103 166.5,-103 166.5,-97 134.5,-97"/>
<polygon fill="none" stroke="black" points="82.5,-76 82.5,-97 88.5,-97 88.5,-76 82.5,-76"/>
<polygon fill="none" stroke="black" points="88.5,-76 88.5,-97 108.5,-97 108.5,-76 88.5,-76"/>
<text text-anchor="start" x="91.5" y="-82.8" font-family="Times,serif" font-size="14.00" fill="red">12</text>
<polygon fill="none" stroke="black" points="108.5,-76 108.5,-97 114.5,-97 114.5,-76 108.5,-76"/>
<polygon fill="none" stroke="black" points="114.5,-76 114.5,-97 134.5,-97 134.5,-76 114.5,-76"/>
<text text-anchor="start" x="117.5" y="-82.8" font-family="Times,serif" font-size="14.00" fill="red">15</text>
<polygon fill="none" stroke="black" points="134.5,-76 134.5,-97 140.5,-97 140.5,-76 134.5,-76"/>
<polygon fill="none" stroke="black" points="140.5,-76 140.5,-97 160.5,-97 160.5,-76 140.5,-76"/>
<text text-anchor="start" x="148" y="-82.8" font-family="Times,serif" font-size="14.00">&#45;</text>
<polygon fill="grey" stroke="none" points="160.5,-76 160.5,-97 166.5,-97 166.5,-76 160.5,-76"/>
<polygon fill="none" stroke="black" points="160.5,-76 160.5,-97 166.5,-97 166.5,-76 160.5,-76"/>
</g>
<!-- node0a&#45;&gt;node1 -->
<g id="edge3" class="edge">
<title>node0a:f0&#45;&gt;node1:H</title>
<path fill="none" stroke="black" d="M283.5,-147C283.5,-147 124.5,-104 124.5,-104"/>
</g>
<!-- node2a -->
<g id="node5" class="node">
<title>node2a</title>
<polygon fill="black" stroke="none" points="221.5,-97 221.5,-103 253.5,-103 253.5,-97 221.5,-97"/>
<polygon fill="none" stroke="black" points="221.5,-97 221.5,-103 253.5,-103 253.5,-97 221.5,-97"/>
<polygon fill="black" stroke="none" points="253.5,-97 253.5,-103 273.5,-103 273.5,-97 253.5,-97"/>
<polygon fill="none" stroke="black" points="253.5,-97 253.5,-103 273.5,-103 273.5,-97 253.5,-97"/>
<polygon fill="black" stroke="none" points="273.5,-97 273.5,-103 305.5,-103 305.5,-97 273.5,-97"/>
<polygon fill="none" stroke="black" points="273.5,-97 273.5,-103 305.5,-103 305.5,-97 273.5,-97"/>
<polygon fill="none" stroke="black" points="221.5,-76 221.5,-97 227.5,-97 227.5,-76 221.5,-76"/>
<polygon fill="none" stroke="black" points="227.5,-76 227.5,-97 247.5,-97 247.5,-76 227.5,-76"/>
<text text-anchor="start" x="230.5" y="-82.8" font-family="Times,serif" font-size="14.00" fill="red">25</text>
<polygon fill="none" stroke="black" points="247.5,-76 247.5,-97 253.5,-97 253.5,-76 247.5,-76"/>
<polygon fill="none" stroke="black" points="253.5,-76 253.5,-97 273.5,-97 273.5,-76 253.5,-76"/>
<text text-anchor="start" x="256.5" y="-82.8" font-family="Times,serif" font-size="14.00" fill="red">31</text>
<polygon fill="none" stroke="black" points="273.5,-76 273.5,-97 279.5,-97 279.5,-76 273.5,-76"/>
<polygon fill="none" stroke="black" points="279.5,-76 279.5,-97 299.5,-97 299.5,-76 279.5,-76"/>
<text text-anchor="start" x="287" y="-82.8" font-family="Times,serif" font-size="14.00">&#45;</text>
<polygon fill="grey" stroke="none" points="299.5,-76 299.5,-97 305.5,-97 305.5,-76 299.5,-76"/>
<polygon fill="none" stroke="black" points="299.5,-76 299.5,-97 305.5,-97 305.5,-76 299.5,-76"/>
</g>
<!-- node0a&#45;&gt;node2a -->
<g id="edge7" class="edge">
<title>node0a:f1&#45;&gt;node2a:H</title>
<path fill="none" stroke="black" d="M309.5,-147C309.5,-147 263.5,-104 263.5,-104"/>
</g>
<!-- node2b -->
<g id="node6" class="node">
<title>node2b</title>
<polygon fill="black" stroke="none" points="339.5,-97 339.5,-103 371.5,-103 371.5,-97 339.5,-97"/>
<polygon fill="none" stroke="black" points="339.5,-97 339.5,-103 371.5,-103 371.5,-97 339.5,-97"/>
<polygon fill="black" stroke="none" points="371.5,-97 371.5,-103 391.5,-103 391.5,-97 371.5,-97"/>
<polygon fill="none" stroke="black" points="371.5,-97 371.5,-103 391.5,-103 391.5,-97 371.5,-97"/>
<polygon fill="black" stroke="none" points="391.5,-97 391.5,-103 423.5,-103 423.5,-97 391.5,-97"/>
<polygon fill="none" stroke="black" points="391.5,-97 391.5,-103 423.5,-103 423.5,-97 391.5,-97"/>
<polygon fill="none" stroke="black" points="339.5,-76 339.5,-97 345.5,-97 345.5,-76 339.5,-76"/>
<polygon fill="none" stroke="black" points="345.5,-76 345.5,-97 365.5,-97 365.5,-76 345.5,-76"/>
<text text-anchor="start" x="348.5" y="-82.8" font-family="Times,serif" font-size="14.00" fill="red">45</text>
<polygon fill="none" stroke="black" points="365.5,-76 365.5,-97 371.5,-97 371.5,-76 365.5,-76"/>
<polygon fill="none" stroke="black" points="371.5,-76 371.5,-97 391.5,-97 391.5,-76 371.5,-76"/>
<text text-anchor="start" x="379" y="-82.8" font-family="Times,serif" font-size="14.00">&#45;</text>
<polygon fill="none" stroke="black" points="391.5,-76 391.5,-97 397.5,-97 397.5,-76 391.5,-76"/>
<polygon fill="none" stroke="black" points="397.5,-76 397.5,-97 417.5,-97 417.5,-76 397.5,-76"/>
<text text-anchor="start" x="405" y="-82.8" font-family="Times,serif" font-size="14.00">&#45;</text>
<polygon fill="grey" stroke="none" points="417.5,-76 417.5,-97 423.5,-97 423.5,-76 417.5,-76"/>
<polygon fill="none" stroke="black" points="417.5,-76 417.5,-97 423.5,-97 423.5,-76 417.5,-76"/>
</g>
<!-- node0a&#45;&gt;node2b -->
<g id="edge11" class="edge">
<title>node0a:f2&#45;&gt;node2b:H</title>
<path fill="none" stroke="black" d="M335.5,-147C335.5,-147 381.5,-104 381.5,-104"/>
</g>
<!-- node3 -->
<g id="node7" class="node">
<title>node3</title>
<polygon fill="black" stroke="none" points="457.5,-97 457.5,-103 489.5,-103 489.5,-97 457.5,-97"/>
<polygon fill="none" stroke="black" points="457.5,-97 457.5,-103 489.5,-103 489.5,-97 457.5,-97"/>
<polygon fill="black" stroke="none" points="489.5,-97 489.5,-103 509.5,-103 509.5,-97 489.5,-97"/>
<polygon fill="none" stroke="black" points="489.5,-97 489.5,-103 509.5,-103 509.5,-97 489.5,-97"/>
<polygon fill="black" stroke="none" points="509.5,-97 509.5,-103 541.5,-103 541.5,-97 509.5,-97"/>
<polygon fill="none" stroke="black" points="509.5,-97 509.5,-103 541.5,-103 541.5,-97 509.5,-97"/>
<polygon fill="none" stroke="black" points="457.5,-76 457.5,-97 463.5,-97 463.5,-76 457.5,-76"/>
<polygon fill="none" stroke="black" points="463.5,-76 463.5,-97 483.5,-97 483.5,-76 463.5,-76"/>
<text text-anchor="start" x="466.5" y="-82.8" font-family="Times,serif" font-size="14.00" fill="red">59</text>
<polygon fill="none" stroke="black" points="483.5,-76 483.5,-97 489.5,-97 489.5,-76 483.5,-76"/>
<polygon fill="none" stroke="black" points="489.5,-76 489.5,-97 509.5,-97 509.5,-76 489.5,-76"/>
<text text-anchor="start" x="497" y="-82.8" font-family="Times,serif" font-size="14.00">&#45;</text>
<polygon fill="grey" stroke="none" points="509.5,-76 509.5,-97 515.5,-97 515.5,-76 509.5,-76"/>
<polygon fill="none" stroke="black" points="509.5,-76 509.5,-97 515.5,-97 515.5,-76 509.5,-76"/>
<polygon fill="none" stroke="black" points="515.5,-76 515.5,-97 535.5,-97 535.5,-76 515.5,-76"/>
<text text-anchor="start" x="523" y="-82.8" font-family="Times,serif" font-size="14.00">&#45;</text>
<polygon fill="grey" stroke="none" points="535.5,-76 535.5,-97 541.5,-97 541.5,-76 535.5,-76"/>
<polygon fill="none" stroke="black" points="535.5,-76 535.5,-97 541.5,-97 541.5,-76 535.5,-76"/>
</g>
<!-- node0b&#45;&gt;node3 -->
<g id="edge14" class="edge">
<title>node0b:f0&#45;&gt;node3:H</title>
<path fill="none" stroke="black" d="M499.5,-147C499.5,-147 499.5,-104 499.5,-104"/>
</g>
<!-- node4 -->
<g id="node8" class="node">
<title>node4</title>
<polygon fill="black" stroke="none" points="575.5,-97 575.5,-103 607.5,-103 607.5,-97 575.5,-97"/>
<polygon fill="none" stroke="black" points="575.5,-97 575.5,-103 607.5,-103 607.5,-97 575.5,-97"/>
<polygon fill="black" stroke="none" points="607.5,-97 607.5,-103 627.5,-103 627.5,-97 607.5,-97"/>
<polygon fill="none" stroke="black" points="607.5,-97 607.5,-103 627.5,-103 627.5,-97 607.5,-97"/>
<polygon fill="black" stroke="none" points="627.5,-97 627.5,-103 659.5,-103 659.5,-97 627.5,-97"/>
<polygon fill="none" stroke="black" points="627.5,-97 627.5,-103 659.5,-103 659.5,-97 627.5,-97"/>
<polygon fill="none" stroke="black" points="575.5,-76 575.5,-97 581.5,-97 581.5,-76 575.5,-76"/>
<polygon fill="none" stroke="black" points="581.5,-76 581.5,-97 601.5,-97 601.5,-76 581.5,-76"/>
<text text-anchor="start" x="584.5" y="-82.8" font-family="Times,serif" font-size="14.00" fill="red">84</text>
<polygon fill="none" stroke="black" points="601.5,-76 601.5,-97 607.5,-97 607.5,-76 601.5,-76"/>
<polygon fill="none" stroke="black" points="607.5,-76 607.5,-97 627.5,-97 627.5,-76 607.5,-76"/>
<text text-anchor="start" x="610.5" y="-82.8" font-family="Times,serif" font-size="14.00" fill="red">91</text>
<polygon fill="none" stroke="black" points="627.5,-76 627.5,-97 633.5,-97 633.5,-76 627.5,-76"/>
<polygon fill="none" stroke="black" points="633.5,-76 633.5,-97 653.5,-97 653.5,-76 633.5,-76"/>
<text text-anchor="start" x="641" y="-82.8" font-family="Times,serif" font-size="14.00">&#45;</text>
<polygon fill="grey" stroke="none" points="653.5,-76 653.5,-97 659.5,-97 659.5,-76 653.5,-76"/>
<polygon fill="none" stroke="black" points="653.5,-76 653.5,-97 659.5,-97 659.5,-76 653.5,-76"/>
</g>
<!-- node0b&#45;&gt;node4 -->
<g id="edge17" class="edge">
<title>node0b:f1&#45;&gt;node4:H</title>
<path fill="none" stroke="black" d="M525.5,-147C525.5,-147 617.5,-104 617.5,-104"/>
</g>
<!-- arr -->
<g id="node9" class="node">
<title>arr</title>
<polygon fill="none" stroke="black" points="11.5,-7 11.5,-28 74.5,-28 74.5,-7 11.5,-7"/>
<text text-anchor="start" x="14.5" y="-13.8" font-family="Times,serif" font-size="14.00">1, 4, 8, 11</text>
<polygon fill="none" stroke="black" points="76.5,-7 76.5,-28 118.5,-28 118.5,-7 76.5,-7"/>
<text text-anchor="start" x="79.5" y="-14.8" font-family="Times,serif" font-size="14.00" fill="red">12</text>
<text text-anchor="start" x="93.5" y="-14.8" font-family="Times,serif" font-size="14.00">, 13</text>
<polygon fill="none" stroke="black" points="120.5,-7 120.5,-28 183.5,-28 183.5,-7 120.5,-7"/>
<text text-anchor="start" x="123.5" y="-14.8" font-family="Times,serif" font-size="14.00" fill="red">15</text>
<text text-anchor="start" x="137.5" y="-14.8" font-family="Times,serif" font-size="14.00">, 18, 19</text>
<polygon fill="none" stroke="black" points="185.5,-7 185.5,-28 227.5,-28 227.5,-7 185.5,-7"/>
<text text-anchor="start" x="188.5" y="-14.8" font-family="Times,serif" font-size="14.00" fill="blue">21</text>
<text text-anchor="start" x="202.5" y="-14.8" font-family="Times,serif" font-size="14.00">, 24</text>
<polygon fill="none" stroke="black" points="229.5,-7 229.5,-28 271.5,-28 271.5,-7 229.5,-7"/>
<text text-anchor="start" x="232.5" y="-14.8" font-family="Times,serif" font-size="14.00" fill="red">25</text>
<text text-anchor="start" x="246.5" y="-14.8" font-family="Times,serif" font-size="14.00">, 26</text>
<polygon fill="none" stroke="black" points="273.5,-7 273.5,-28 315.5,-28 315.5,-7 273.5,-7"/>
<text text-anchor="start" x="276.5" y="-14.8" font-family="Times,serif" font-size="14.00" fill="red">31</text>
<text text-anchor="start" x="290.5" y="-14.8" font-family="Times,serif" font-size="14.00">, 38</text>
<polygon fill="none" stroke="black" points="317.5,-7 317.5,-28 380.5,-28 380.5,-7 317.5,-7"/>
<text text-anchor="start" x="320.5" y="-14.8" font-family="Times,serif" font-size="14.00" fill="blue">41</text>
<text text-anchor="start" x="334.5" y="-14.8" font-family="Times,serif" font-size="14.00">, 43, 44</text>
<polygon fill="none" stroke="black" points="382.5,-7 382.5,-28 424.5,-28 424.5,-7 382.5,-7"/>
<text text-anchor="start" x="385.5" y="-14.8" font-family="Times,serif" font-size="14.00" fill="red">45</text>
<text text-anchor="start" x="399.5" y="-14.8" font-family="Times,serif" font-size="14.00">, 46</text>
<polygon fill="none" stroke="black" points="426.5,-7 426.5,-28 489.5,-28 489.5,-7 426.5,-7"/>
<text text-anchor="start" x="429.5" y="-14.8" font-family="Times,serif" font-size="14.00" fill="purple">48</text>
<text text-anchor="start" x="443.5" y="-14.8" font-family="Times,serif" font-size="14.00">, 49, 50</text>
<polygon fill="none" stroke="black" points="491.5,-7 491.5,-28 533.5,-28 533.5,-7 491.5,-7"/>
<text text-anchor="start" x="494.5" y="-14.8" font-family="Times,serif" font-size="14.00" fill="red">59</text>
<text text-anchor="start" x="508.5" y="-14.8" font-family="Times,serif" font-size="14.00">, 68</text>
<polygon fill="none" stroke="black" points="535.5,-7 535.5,-28 577.5,-28 577.5,-7 535.5,-7"/>
<text text-anchor="start" x="538.5" y="-14.8" font-family="Times,serif" font-size="14.00" fill="blue">72</text>
<text text-anchor="start" x="552.5" y="-14.8" font-family="Times,serif" font-size="14.00">, 78</text>
<polygon fill="none" stroke="black" points="579.5,-7 579.5,-28 621.5,-28 621.5,-7 579.5,-7"/>
<text text-anchor="start" x="582.5" y="-14.8" font-family="Times,serif" font-size="14.00" fill="red">84</text>
<text text-anchor="start" x="596.5" y="-14.8" font-family="Times,serif" font-size="14.00">, 88</text>
<polygon fill="none" stroke="black" points="623.5,-7 623.5,-28 686.5,-28 686.5,-7 623.5,-7"/>
<text text-anchor="start" x="626.5" y="-14.8" font-family="Times,serif" font-size="14.00" fill="red">91</text>
<text text-anchor="start" x="640.5" y="-14.8" font-family="Times,serif" font-size="14.00">, 92, 99</text>
<polygon fill="none" stroke="black" points="8,-4.5 8,-31.5 689,-31.5 689,-4.5 8,-4.5"/>
</g>
<!-- node1&#45;&gt;arr -->
<g id="edge4" class="edge">
<title>node1:f0&#45;&gt;arr:f0</title>
<path fill="none" stroke="black" d="M85.5,-75C85.5,-75 42.5,-29 42.5,-29"/>
</g>
<!-- node1&#45;&gt;arr -->
<g id="edge5" class="edge">
<title>node1:f1&#45;&gt;arr:f1</title>
<path fill="none" stroke="black" d="M111.5,-75C111.5,-75 97.5,-29 97.5,-29"/>
</g>
<!-- node1&#45;&gt;arr -->
<g id="edge6" class="edge">
<title>node1:f2&#45;&gt;arr:f2</title>
<path fill="none" stroke="black" d="M137.5,-75C137.5,-75 151.5,-29 151.5,-29"/>
</g>
<!-- node2a&#45;&gt;arr -->
<g id="edge8" class="edge">
<title>node2a:f0&#45;&gt;arr:f3</title>
<path fill="none" stroke="black" d="M224.5,-75C224.5,-75 206.5,-29 206.5,-29"/>
</g>
<!-- node2a&#45;&gt;arr -->
<g id="edge9" class="edge">
<title>node2a:f1&#45;&gt;arr:f4</title>
<path fill="none" stroke="black" d="M250.5,-75C250.5,-75 250.5,-29 250.5,-29"/>
</g>
<!-- node2a&#45;&gt;arr -->
<g id="edge10" class="edge">
<title>node2a:f2&#45;&gt;arr:f5</title>
<path fill="none" stroke="black" d="M276.5,-75C276.5,-75 294.5,-29 294.5,-29"/>
</g>
<!-- node2b&#45;&gt;arr -->
<g id="edge12" class="edge">
<title>node2b:f0&#45;&gt;arr:f6a</title>
<path fill="none" stroke="black" d="M342.5,-75C342.5,-75 349.5,-29 349.5,-29"/>
</g>
<!-- node2b&#45;&gt;arr -->
<g id="edge13" class="edge">
<title>node2b:f1&#45;&gt;arr:f6b</title>
<path fill="none" stroke="black" d="M368.5,-75C368.5,-75 403.5,-29 403.5,-29"/>
</g>
<!-- node3&#45;&gt;arr -->
<g id="edge15" class="edge">
<title>node3:f0&#45;&gt;arr:f7</title>
<path fill="none" stroke="black" d="M460.5,-75C460.5,-75 458.5,-29 458.5,-29"/>
</g>
<!-- node3&#45;&gt;arr -->
<g id="edge16" class="edge">
<title>node3:f1&#45;&gt;arr:f8</title>
<path fill="none" stroke="black" d="M486.5,-75C486.5,-75 512.5,-29 512.5,-29"/>
</g>
<!-- node4&#45;&gt;arr -->
<g id="edge18" class="edge">
<title>node4:f0&#45;&gt;arr:f9</title>
<path fill="none" stroke="black" d="M578.5,-75C578.5,-75 556.5,-29 556.5,-29"/>
</g>
<!-- node4&#45;&gt;arr -->
<g id="edge19" class="edge">
<title>node4:f1&#45;&gt;arr:f10</title>
<path fill="none" stroke="black" d="M604.5,-75C604.5,-75 600.5,-29 600.5,-29"/>
</g>
<!-- node4&#45;&gt;arr -->
<g id="edge20" class="edge">
<title>node4:f2&#45;&gt;arr:f11</title>
<path fill="none" stroke="black" d="M630.5,-75C630.5,-75 655.5,-29 655.5,-29"/>
</g>
</g>
</svg>
