<?xml version="1.0" encoding="UTF-8"?>
<!DOCTYPE svg PUBLIC "-//W3C//DTD SVG 1.1//EN" "http://www.w3.org/Graphics/SVG/1.1/DTD/svg11.dtd">
<svg xmlns="http://www.w3.org/2000/svg" xmlns:xlink="http://www.w3.org/1999/xlink" version="1.1" width="1004px" height="203px" viewBox="-0.5 -0.5 1004 203"><defs/><g><ellipse cx="141" cy="21" rx="20" ry="20" fill="#f8cecc" stroke="#b85450" stroke-width="3" pointer-events="all"/><ellipse cx="221" cy="101" rx="20" ry="20" fill="#f8cecc" stroke="#b85450" stroke-width="3" pointer-events="all"/><ellipse cx="61" cy="101" rx="20" ry="20" fill="rgb(255, 255, 255)" stroke="rgb(0, 0, 0)" stroke-width="3" pointer-events="all"/><ellipse cx="181" cy="181" rx="20" ry="20" fill="rgb(255, 255, 255)" stroke="rgb(0, 0, 0)" stroke-width="3" pointer-events="all"/><ellipse cx="261" cy="181" rx="20" ry="20" fill="#f8cecc" stroke="#b85450" stroke-width="3" pointer-events="all"/><ellipse cx="101" cy="181" rx="20" ry="20" fill="rgb(255, 255, 255)" stroke="rgb(0, 0, 0)" stroke-width="3" pointer-events="all"/><ellipse cx="21" cy="181" rx="20" ry="20" fill="rgb(255, 255, 255)" stroke="rgb(0, 0, 0)" stroke-width="3" pointer-events="all"/><path d="M 21 161 L 61 121" fill="none" stroke="rgb(0, 0, 0)" stroke-width="3" stroke-miterlimit="10" pointer-events="stroke"/><path d="M 101 161 L 61 121" fill="none" stroke="rgb(0, 0, 0)" stroke-width="3" stroke-miterlimit="10" pointer-events="stroke"/><path d="M 61 81 L 141 41" fill="none" stroke="rgb(0, 0, 0)" stroke-width="3" stroke-miterlimit="10" pointer-events="stroke"/><path d="M 141 41 L 221 81" fill="none" stroke="#b85450" stroke-width="3" stroke-miterlimit="10" pointer-events="stroke"/><path d="M 181 161 L 221 121" fill="none" stroke="rgb(0, 0, 0)" stroke-width="3" stroke-miterlimit="10" pointer-events="stroke"/><path d="M 221 121 L 261 161" fill="none" stroke="#b85450" stroke-width="3" stroke-miterlimit="10" pointer-events="stroke"/><ellipse cx="501" cy="21" rx="20" ry="20" fill="#f8cecc" stroke="#b95450" stroke-width="3" pointer-events="all"/><ellipse cx="581" cy="101" rx="20" ry="20" fill="rgb(255, 255, 255)" stroke="#b95450" stroke-width="3" pointer-events="all"/><ellipse cx="421" cy="101" rx="20" ry="20" fill="#f8cecc" stroke="#000000" stroke-width="3" pointer-events="all"/><ellipse cx="541" cy="181" rx="20" ry="20" fill="rgb(255, 255, 255)" stroke="rgb(0, 0, 0)" stroke-width="3" pointer-events="all"/><ellipse cx="621" cy="181" rx="20" ry="20" fill="rgb(255, 255, 255)" stroke="#b95450" stroke-width="3" pointer-events="all"/><ellipse cx="461" cy="181" rx="20" ry="20" fill="rgb(255, 255, 255)" stroke="rgb(0, 0, 0)" stroke-width="3" pointer-events="all"/><ellipse cx="381" cy="181" rx="20" ry="20" fill="#f8cecc" stroke="#000000" stroke-width="3" pointer-events="all"/><path d="M 381 161 L 421 121" fill="none" stroke="#000000" stroke-width="3" stroke-miterlimit="10" pointer-events="stroke"/><path d="M 461 161 L 421 121" fill="none" stroke="rgb(0, 0, 0)" stroke-width="3" stroke-miterlimit="10" pointer-events="stroke"/><path d="M 421 81 L 501 41" fill="none" stroke="#000000" stroke-width="3" stroke-miterlimit="10" pointer-events="stroke"/><path d="M 501 41 L 581 81" fill="none" stroke="#b95450" stroke-width="3" stroke-miterlimit="10" pointer-events="stroke"/><path d="M 541 161 L 581 121" fill="none" stroke="rgb(0, 0, 0)" stroke-width="3" stroke-miterlimit="10" pointer-events="stroke"/><path d="M 581 121 L 621 161" fill="none" stroke="#b95450" stroke-width="3" stroke-miterlimit="10" pointer-events="stroke"/><ellipse cx="861" cy="21" rx="20" ry="20" fill="#f8cecc" stroke="#b95450" stroke-width="3" pointer-events="all"/><ellipse cx="781" cy="101" rx="20" ry="20" fill="rgb(255, 255, 255)" stroke="#000000" stroke-width="3" pointer-events="all"/><ellipse cx="941" cy="101" rx="20" ry="20" fill="#f8cecc" stroke="#b95450" stroke-width="3" pointer-events="all"/><ellipse cx="821" cy="181" rx="20" ry="20" fill="rgb(255, 255, 255)" stroke="#000000" stroke-width="3" pointer-events="all"/><ellipse cx="741" cy="181" rx="20" ry="20" fill="rgb(255, 255, 255)" stroke="#000000" stroke-width="3" pointer-events="all"/><ellipse cx="981" cy="181" rx="20" ry="20" fill="rgb(255, 255, 255)" stroke="#b95450" stroke-width="3" pointer-events="all"/><ellipse cx="901" cy="181" rx="20" ry="20" fill="#f8cecc" stroke="#000000" stroke-width="3" pointer-events="all"/><path d="M 901 161 L 941 121" fill="none" stroke="#000000" stroke-width="3" stroke-miterlimit="10" pointer-events="stroke"/><path d="M 981 161 L 941 121" fill="none" stroke="#b95450" stroke-width="3" stroke-miterlimit="10" pointer-events="stroke"/><path d="M 941 81 L 861 41" fill="none" stroke="#b95450" stroke-width="3" stroke-miterlimit="10" pointer-events="stroke"/><path d="M 861 41 L 781 81" fill="none" stroke="#000000" stroke-width="3" stroke-miterlimit="10" pointer-events="stroke"/><path d="M 821 161 L 781 121" fill="none" stroke="#000000" stroke-width="3" stroke-miterlimit="10" pointer-events="stroke"/><path d="M 781 121 L 741 161" fill="none" stroke="#000000" stroke-width="3" stroke-miterlimit="10" pointer-events="stroke"/><path d="M 281 81 L 350.9 81" fill="none" stroke="rgb(0, 0, 0)" stroke-width="3" stroke-miterlimit="10" pointer-events="stroke"/><path d="M 357.65 81 L 348.65 85.5 L 350.9 81 L 348.65 76.5 Z" fill="rgb(0, 0, 0)" stroke="rgb(0, 0, 0)" stroke-width="3" stroke-miterlimit="10" pointer-events="all"/><path d="M 641 81 L 710.9 81" fill="none" stroke="rgb(0, 0, 0)" stroke-width="3" stroke-miterlimit="10" pointer-events="stroke"/><path d="M 717.65 81 L 708.65 85.5 L 710.9 81 L 708.65 76.5 Z" fill="rgb(0, 0, 0)" stroke="rgb(0, 0, 0)" stroke-width="3" stroke-miterlimit="10" pointer-events="all"/></g></svg>